<svg width="584" height="464" viewBox="0 0 584 464" fill="none" xmlns="http://www.w3.org/2000/svg">
<path d="M108.432 12.794V8.81818H129.321V12.794H121.229V35H116.524V12.794H108.432ZM133.143 35V15.3636H137.771V35H133.143ZM135.47 12.5767C134.737 12.5767 134.107 12.3338 133.578 11.848C133.05 11.3537 132.786 10.7614 132.786 10.071C132.786 9.37216 133.05 8.77983 133.578 8.29403C134.107 7.79971 134.737 7.55256 135.47 7.55256C136.212 7.55256 136.842 7.79971 137.362 8.29403C137.891 8.77983 138.155 9.37216 138.155 10.071C138.155 10.7614 137.891 11.3537 137.362 11.848C136.842 12.3338 136.212 12.5767 135.47 12.5767ZM142.53 35V15.3636H146.953V18.7003H147.184C147.593 17.5753 148.27 16.6974 149.216 16.0668C150.162 15.4276 151.292 15.108 152.604 15.108C153.934 15.108 155.054 15.4318 155.966 16.0795C156.887 16.7187 157.534 17.5923 157.909 18.7003H158.114C158.549 17.6094 159.282 16.7401 160.313 16.0923C161.353 15.4361 162.584 15.108 164.007 15.108C165.814 15.108 167.289 15.679 168.431 16.821C169.573 17.9631 170.144 19.6293 170.144 21.8196V35H165.503V22.5355C165.503 21.3168 165.179 20.4261 164.532 19.8636C163.884 19.2926 163.091 19.0071 162.154 19.0071C161.037 19.0071 160.164 19.3565 159.533 20.0554C158.911 20.7457 158.6 21.6449 158.6 22.7528V35H154.061V22.3438C154.061 21.3295 153.755 20.5199 153.141 19.9148C152.536 19.3097 151.743 19.0071 150.763 19.0071C150.098 19.0071 149.493 19.1776 148.948 19.5185C148.402 19.8509 147.968 20.3239 147.644 20.9375C147.32 21.5426 147.158 22.25 147.158 23.0597V35H142.53ZM183.532 35.3835C181.563 35.3835 179.863 34.9744 178.431 34.1562C177.008 33.3295 175.913 32.1619 175.146 30.6534C174.379 29.1364 173.995 27.3509 173.995 25.2969C173.995 23.277 174.379 21.5043 175.146 19.9787C175.921 18.4446 177.004 17.2514 178.393 16.3991C179.782 15.5384 181.414 15.108 183.289 15.108C184.499 15.108 185.641 15.304 186.715 15.696C187.798 16.0795 188.752 16.6761 189.579 17.4858C190.414 18.2955 191.07 19.3267 191.548 20.5795C192.025 21.8239 192.263 23.3068 192.263 25.0284V26.4474H176.168V23.3281H187.827C187.819 22.4418 187.627 21.6534 187.252 20.9631C186.877 20.2642 186.353 19.7145 185.68 19.3139C185.015 18.9134 184.239 18.7131 183.353 18.7131C182.407 18.7131 181.576 18.9432 180.86 19.4034C180.144 19.8551 179.586 20.4517 179.185 21.1932C178.793 21.9261 178.593 22.7315 178.585 23.6094V26.3324C178.585 27.4744 178.793 28.4545 179.211 29.2727C179.629 30.0824 180.212 30.7045 180.962 31.1392C181.712 31.5653 182.59 31.7784 183.596 31.7784C184.269 31.7784 184.879 31.6847 185.424 31.4972C185.969 31.3011 186.442 31.0156 186.843 30.6406C187.244 30.2656 187.546 29.8011 187.751 29.2472L192.072 29.733C191.799 30.875 191.279 31.8722 190.512 32.7244C189.754 33.5682 188.782 34.2244 187.597 34.6932C186.413 35.1534 185.058 35.3835 183.532 35.3835ZM209.161 35L203.613 15.3636H208.33L211.782 29.1705H211.961L215.489 15.3636H220.155L223.684 29.0938H223.875L227.276 15.3636H232.006L226.445 35H221.625L217.944 21.7301H217.675L213.993 35H209.161ZM235.237 35V15.3636H239.865V35H235.237ZM237.564 12.5767C236.831 12.5767 236.2 12.3338 235.672 11.848C235.143 11.3537 234.879 10.7614 234.879 10.071C234.879 9.37216 235.143 8.77983 235.672 8.29403C236.2 7.79971 236.831 7.55256 237.564 7.55256C238.305 7.55256 238.936 7.79971 239.456 8.29403C239.984 8.77983 240.249 9.37216 240.249 10.071C240.249 10.7614 239.984 11.3537 239.456 11.848C238.936 12.3338 238.305 12.5767 237.564 12.5767ZM254.429 15.3636V18.9432H243.141V15.3636H254.429ZM245.928 10.6591H250.556V29.0938C250.556 29.7159 250.65 30.1932 250.837 30.5256C251.033 30.8494 251.289 31.071 251.604 31.1903C251.919 31.3097 252.269 31.3693 252.652 31.3693C252.942 31.3693 253.206 31.348 253.445 31.3054C253.692 31.2628 253.88 31.2244 254.007 31.1903L254.787 34.8082C254.54 34.8935 254.186 34.9872 253.726 35.0895C253.275 35.1918 252.721 35.2514 252.064 35.2685C250.905 35.3026 249.861 35.1278 248.932 34.7443C248.003 34.3523 247.266 33.7472 246.721 32.929C246.184 32.1108 245.919 31.0881 245.928 29.8608V10.6591ZM263.349 23.4943V35H258.722V8.81818H263.247V18.7003H263.477C263.938 17.5923 264.649 16.7187 265.612 16.0795C266.584 15.4318 267.82 15.108 269.32 15.108C270.683 15.108 271.872 15.3935 272.886 15.9645C273.901 16.5355 274.685 17.3707 275.239 18.4702C275.801 19.5696 276.082 20.9119 276.082 22.4972V35H271.455V23.2131C271.455 21.892 271.114 20.8651 270.432 20.1321C269.759 19.3906 268.812 19.0199 267.594 19.0199C266.776 19.0199 266.043 19.1989 265.395 19.5568C264.756 19.9062 264.253 20.4134 263.886 21.0781C263.528 21.7429 263.349 22.5483 263.349 23.4943ZM289.365 35.3835C287.447 35.3835 285.786 34.9616 284.379 34.1179C282.973 33.2741 281.882 32.0937 281.107 30.5767C280.339 29.0597 279.956 27.2869 279.956 25.2585C279.956 23.2301 280.339 21.4531 281.107 19.9276C281.882 18.402 282.973 17.2173 284.379 16.3736C285.786 15.5298 287.447 15.108 289.365 15.108C291.283 15.108 292.945 15.5298 294.351 16.3736C295.757 17.2173 296.844 18.402 297.611 19.9276C298.386 21.4531 298.774 23.2301 298.774 25.2585C298.774 27.2869 298.386 29.0597 297.611 30.5767C296.844 32.0937 295.757 33.2741 294.351 34.1179C292.945 34.9616 291.283 35.3835 289.365 35.3835ZM289.391 31.6761C290.43 31.6761 291.3 31.3906 291.999 30.8196C292.697 30.2401 293.217 29.4645 293.558 28.4929C293.908 27.5213 294.082 26.4389 294.082 25.2457C294.082 24.044 293.908 22.9574 293.558 21.9858C293.217 21.0057 292.697 20.2259 291.999 19.6463C291.3 19.0668 290.43 18.777 289.391 18.777C288.325 18.777 287.439 19.0668 286.732 19.6463C286.033 20.2259 285.509 21.0057 285.159 21.9858C284.818 22.9574 284.648 24.044 284.648 25.2457C284.648 26.4389 284.818 27.5213 285.159 28.4929C285.509 29.4645 286.033 30.2401 286.732 30.8196C287.439 31.3906 288.325 31.6761 289.391 31.6761ZM315.218 26.7415V15.3636H319.846V35H315.358V31.5099H315.154C314.711 32.6094 313.982 33.5085 312.968 34.2074C311.962 34.9062 310.722 35.2557 309.248 35.2557C307.961 35.2557 306.823 34.9702 305.834 34.3991C304.854 33.8196 304.087 32.9801 303.533 31.8807C302.979 30.7727 302.702 29.4347 302.702 27.8665V15.3636H307.33V27.1506C307.33 28.3949 307.671 29.3835 308.353 30.1165C309.034 30.8494 309.929 31.2159 311.037 31.2159C311.719 31.2159 312.38 31.0497 313.019 30.7173C313.658 30.3849 314.182 29.8906 314.591 29.2344C315.009 28.5696 315.218 27.7386 315.218 26.7415ZM334.41 15.3636V18.9432H323.121V15.3636H334.41ZM325.908 10.6591H330.536V29.0938C330.536 29.7159 330.63 30.1932 330.817 30.5256C331.013 30.8494 331.269 31.071 331.585 31.1903C331.9 31.3097 332.249 31.3693 332.633 31.3693C332.923 31.3693 333.187 31.348 333.425 31.3054C333.673 31.2628 333.86 31.2244 333.988 31.1903L334.768 34.8082C334.521 34.8935 334.167 34.9872 333.707 35.0895C333.255 35.1918 332.701 35.2514 332.045 35.2685C330.886 35.3026 329.842 35.1278 328.913 34.7443C327.984 34.3523 327.246 33.7472 326.701 32.929C326.164 32.1108 325.9 31.0881 325.908 29.8608V10.6591ZM357.015 15.3636V18.9432H345.727V15.3636H357.015ZM348.514 10.6591H353.142V29.0938C353.142 29.7159 353.235 30.1932 353.423 30.5256C353.619 30.8494 353.875 31.071 354.19 31.1903C354.505 31.3097 354.855 31.3693 355.238 31.3693C355.528 31.3693 355.792 31.348 356.031 31.3054C356.278 31.2628 356.466 31.2244 356.593 31.1903L357.373 34.8082C357.126 34.8935 356.772 34.9872 356.312 35.0895C355.86 35.1918 355.306 35.2514 354.65 35.2685C353.491 35.3026 352.447 35.1278 351.518 34.7443C350.589 34.3523 349.852 33.7472 349.306 32.929C348.77 32.1108 348.505 31.0881 348.514 29.8608V10.6591ZM365.935 23.4943V35H361.308V8.81818H365.833V18.7003H366.063C366.523 17.5923 367.235 16.7187 368.198 16.0795C369.17 15.4318 370.406 15.108 371.906 15.108C373.269 15.108 374.458 15.3935 375.472 15.9645C376.487 16.5355 377.271 17.3707 377.825 18.4702C378.387 19.5696 378.668 20.9119 378.668 22.4972V35H374.04V23.2131C374.04 21.892 373.7 20.8651 373.018 20.1321C372.344 19.3906 371.398 19.0199 370.18 19.0199C369.362 19.0199 368.629 19.1989 367.981 19.5568C367.342 19.9062 366.839 20.4134 366.472 21.0781C366.114 21.7429 365.935 22.5483 365.935 23.4943ZM392.079 35.3835C390.11 35.3835 388.41 34.9744 386.978 34.1562C385.555 33.3295 384.46 32.1619 383.692 30.6534C382.925 29.1364 382.542 27.3509 382.542 25.2969C382.542 23.277 382.925 21.5043 383.692 19.9787C384.468 18.4446 385.55 17.2514 386.94 16.3991C388.329 15.5384 389.961 15.108 391.836 15.108C393.046 15.108 394.188 15.304 395.262 15.696C396.344 16.0795 397.299 16.6761 398.126 17.4858C398.961 18.2955 399.617 19.3267 400.094 20.5795C400.572 21.8239 400.81 23.3068 400.81 25.0284V26.4474H384.715V23.3281H396.374C396.366 22.4418 396.174 21.6534 395.799 20.9631C395.424 20.2642 394.9 19.7145 394.227 19.3139C393.562 18.9134 392.786 18.7131 391.9 18.7131C390.954 18.7131 390.123 18.9432 389.407 19.4034C388.691 19.8551 388.133 20.4517 387.732 21.1932C387.34 21.9261 387.14 22.7315 387.131 23.6094V26.3324C387.131 27.4744 387.34 28.4545 387.758 29.2727C388.175 30.0824 388.759 30.7045 389.509 31.1392C390.259 31.5653 391.137 31.7784 392.143 31.7784C392.816 31.7784 393.425 31.6847 393.971 31.4972C394.516 31.3011 394.989 31.0156 395.39 30.6406C395.79 30.2656 396.093 29.8011 396.298 29.2472L400.619 29.733C400.346 30.875 399.826 31.8722 399.059 32.7244C398.3 33.5682 397.329 34.2244 396.144 34.6932C394.96 35.1534 393.604 35.3835 392.079 35.3835ZM419.306 35.3963C418.061 35.3963 416.941 35.1747 415.944 34.7315C414.955 34.2798 414.171 33.6151 413.591 32.7372C413.02 31.8594 412.735 30.777 412.735 29.4901C412.735 28.3821 412.939 27.4659 413.348 26.7415C413.757 26.017 414.316 25.4375 415.023 25.0028C415.73 24.5682 416.527 24.2401 417.414 24.0185C418.309 23.7884 419.233 23.6222 420.188 23.5199C421.338 23.4006 422.272 23.294 422.988 23.2003C423.703 23.098 424.223 22.9446 424.547 22.7401C424.88 22.527 425.046 22.1989 425.046 21.7557V21.679C425.046 20.7159 424.76 19.9702 424.189 19.4418C423.618 18.9134 422.796 18.6491 421.722 18.6491C420.588 18.6491 419.689 18.8963 419.025 19.3906C418.368 19.8849 417.925 20.4687 417.695 21.142L413.374 20.5284C413.715 19.3352 414.277 18.3381 415.061 17.5369C415.846 16.7273 416.804 16.1222 417.938 15.7216C419.071 15.3125 420.324 15.108 421.696 15.108C422.642 15.108 423.584 15.2188 424.522 15.4403C425.459 15.6619 426.316 16.0284 427.091 16.5398C427.867 17.0426 428.489 17.7287 428.958 18.598C429.435 19.4673 429.674 20.554 429.674 21.858V35H425.225V32.3026H425.071C424.79 32.848 424.394 33.3594 423.882 33.8366C423.38 34.3054 422.745 34.6847 421.978 34.9744C421.219 35.2557 420.328 35.3963 419.306 35.3963ZM420.507 31.9957C421.436 31.9957 422.242 31.8125 422.924 31.446C423.605 31.071 424.13 30.5767 424.496 29.9631C424.871 29.3494 425.059 28.6804 425.059 27.956V25.642C424.914 25.7614 424.667 25.8722 424.317 25.9744C423.976 26.0767 423.593 26.1662 423.167 26.2429C422.74 26.3196 422.319 26.3878 421.901 26.4474C421.483 26.5071 421.121 26.5582 420.814 26.6009C420.124 26.6946 419.506 26.848 418.961 27.0611C418.415 27.2741 417.985 27.5724 417.669 27.956C417.354 28.331 417.196 28.8168 417.196 29.4134C417.196 30.2656 417.507 30.9091 418.13 31.3438C418.752 31.7784 419.544 31.9957 420.507 31.9957ZM434.327 42.3636V15.3636H438.878V18.6108H439.147C439.385 18.1335 439.722 17.6264 440.157 17.0895C440.591 16.544 441.179 16.0795 441.921 15.696C442.662 15.304 443.608 15.108 444.759 15.108C446.276 15.108 447.644 15.4957 448.863 16.2713C450.09 17.0384 451.061 18.1761 451.777 19.6847C452.502 21.1847 452.864 23.0256 452.864 25.2074C452.864 27.3636 452.51 29.196 451.803 30.7045C451.096 32.2131 450.132 33.3636 448.914 34.1562C447.695 34.9489 446.314 35.3452 444.772 35.3452C443.647 35.3452 442.713 35.1577 441.972 34.7827C441.23 34.4077 440.634 33.956 440.182 33.4276C439.739 32.8906 439.394 32.3835 439.147 31.9062H438.955V42.3636H434.327ZM438.865 25.1818C438.865 26.4517 439.044 27.5639 439.402 28.5185C439.769 29.473 440.293 30.2187 440.975 30.7557C441.665 31.2841 442.5 31.5483 443.48 31.5483C444.503 31.5483 445.36 31.2756 446.05 30.7301C446.74 30.1761 447.26 29.4219 447.61 28.4673C447.968 27.5043 448.147 26.4091 448.147 25.1818C448.147 23.9631 447.972 22.8807 447.623 21.9347C447.273 20.9886 446.753 20.2472 446.063 19.7102C445.373 19.1733 444.512 18.9048 443.48 18.9048C442.492 18.9048 441.652 19.1648 440.962 19.6847C440.272 20.2045 439.748 20.9332 439.39 21.8707C439.04 22.8082 438.865 23.9119 438.865 25.1818ZM456.827 42.3636V15.3636H461.378V18.6108H461.647C461.885 18.1335 462.222 17.6264 462.657 17.0895C463.091 16.544 463.679 16.0795 464.421 15.696C465.162 15.304 466.108 15.108 467.259 15.108C468.776 15.108 470.144 15.4957 471.363 16.2713C472.59 17.0384 473.561 18.1761 474.277 19.6847C475.002 21.1847 475.364 23.0256 475.364 25.2074C475.364 27.3636 475.01 29.196 474.303 30.7045C473.596 32.2131 472.632 33.3636 471.414 34.1562C470.195 34.9489 468.814 35.3452 467.272 35.3452C466.147 35.3452 465.213 35.1577 464.472 34.7827C463.73 34.4077 463.134 33.956 462.682 33.4276C462.239 32.8906 461.894 32.3835 461.647 31.9062H461.455V42.3636H456.827ZM461.365 25.1818C461.365 26.4517 461.544 27.5639 461.902 28.5185C462.269 29.473 462.793 30.2187 463.475 30.7557C464.165 31.2841 465 31.5483 465.98 31.5483C467.003 31.5483 467.86 31.2756 468.55 30.7301C469.24 30.1761 469.76 29.4219 470.11 28.4673C470.468 27.5043 470.647 26.4091 470.647 25.1818C470.647 23.9631 470.472 22.8807 470.123 21.9347C469.773 20.9886 469.253 20.2472 468.563 19.7102C467.873 19.1733 467.012 18.9048 465.98 18.9048C464.992 18.9048 464.152 19.1648 463.462 19.6847C462.772 20.2045 462.248 20.9332 461.89 21.8707C461.54 22.8082 461.365 23.9119 461.365 25.1818Z" fill="black"/>
<mask id="path-2-inside-1_3_211" fill="white">
<path d="M156 92H584V401H156V92Z"/>
</mask>
<path d="M156 401H155V402H156V401ZM584 400H156V402H584V400ZM157 401V92H155V401H157Z" fill="black" mask="url(#path-2-inside-1_3_211)"/>
<path d="M287.818 456V432.727H295.682C297.508 432.727 299 433.057 300.159 433.716C301.326 434.367 302.189 435.25 302.75 436.364C303.311 437.477 303.591 438.72 303.591 440.091C303.591 441.462 303.311 442.708 302.75 443.83C302.197 444.951 301.341 445.845 300.182 446.511C299.023 447.17 297.538 447.5 295.727 447.5H290.091V445H295.636C296.886 445 297.89 444.784 298.648 444.352C299.405 443.92 299.955 443.337 300.295 442.602C300.644 441.86 300.818 441.023 300.818 440.091C300.818 439.159 300.644 438.326 300.295 437.591C299.955 436.856 299.402 436.28 298.636 435.864C297.871 435.439 296.856 435.227 295.591 435.227H290.636V456H287.818ZM312.903 456.409C311.797 456.409 310.794 456.201 309.892 455.784C308.991 455.36 308.275 454.75 307.744 453.955C307.214 453.152 306.949 452.182 306.949 451.045C306.949 450.045 307.146 449.235 307.54 448.614C307.934 447.985 308.46 447.492 309.119 447.136C309.778 446.78 310.506 446.515 311.301 446.341C312.104 446.159 312.911 446.015 313.722 445.909C314.782 445.773 315.642 445.67 316.301 445.602C316.968 445.527 317.453 445.402 317.756 445.227C318.066 445.053 318.222 444.75 318.222 444.318V444.227C318.222 443.106 317.915 442.235 317.301 441.614C316.695 440.992 315.775 440.682 314.54 440.682C313.259 440.682 312.256 440.962 311.528 441.523C310.801 442.083 310.29 442.682 309.994 443.318L307.449 442.409C307.903 441.348 308.509 440.523 309.267 439.932C310.032 439.333 310.866 438.917 311.767 438.682C312.676 438.439 313.57 438.318 314.449 438.318C315.009 438.318 315.653 438.386 316.381 438.523C317.116 438.652 317.824 438.92 318.506 439.33C319.195 439.739 319.767 440.356 320.222 441.182C320.676 442.008 320.903 443.114 320.903 444.5V456H318.222V453.636H318.085C317.903 454.015 317.6 454.42 317.176 454.852C316.752 455.284 316.188 455.652 315.483 455.955C314.778 456.258 313.919 456.409 312.903 456.409ZM313.312 454C314.373 454 315.267 453.792 315.994 453.375C316.729 452.958 317.282 452.42 317.653 451.761C318.032 451.102 318.222 450.409 318.222 449.682V447.227C318.108 447.364 317.858 447.489 317.472 447.602C317.093 447.708 316.653 447.803 316.153 447.886C315.661 447.962 315.18 448.03 314.71 448.091C314.248 448.144 313.873 448.189 313.585 448.227C312.888 448.318 312.237 448.466 311.631 448.67C311.032 448.867 310.547 449.167 310.176 449.568C309.813 449.962 309.631 450.5 309.631 451.182C309.631 452.114 309.975 452.818 310.665 453.295C311.362 453.765 312.244 454 313.312 454ZM325.798 456V438.545H328.389V441.182H328.571C328.889 440.318 329.465 439.617 330.298 439.08C331.132 438.542 332.071 438.273 333.116 438.273C333.313 438.273 333.56 438.277 333.855 438.284C334.151 438.292 334.374 438.303 334.526 438.318V441.045C334.435 441.023 334.226 440.989 333.901 440.943C333.582 440.89 333.245 440.864 332.889 440.864C332.041 440.864 331.283 441.042 330.616 441.398C329.957 441.746 329.435 442.231 329.048 442.852C328.67 443.466 328.48 444.167 328.48 444.955V456H325.798ZM346.389 438.545V440.818H337.344V438.545H346.389ZM339.98 434.364H342.662V451C342.662 451.758 342.772 452.326 342.991 452.705C343.219 453.076 343.507 453.326 343.855 453.455C344.211 453.576 344.586 453.636 344.98 453.636C345.276 453.636 345.518 453.621 345.707 453.591C345.897 453.553 346.048 453.523 346.162 453.5L346.707 455.909C346.526 455.977 346.272 456.045 345.946 456.114C345.62 456.189 345.207 456.227 344.707 456.227C343.95 456.227 343.207 456.064 342.48 455.739C341.76 455.413 341.162 454.917 340.685 454.25C340.215 453.583 339.98 452.742 339.98 451.727V434.364ZM350.423 456V438.545H353.105V456H350.423ZM351.787 435.636C351.264 435.636 350.813 435.458 350.435 435.102C350.063 434.746 349.878 434.318 349.878 433.818C349.878 433.318 350.063 432.89 350.435 432.534C350.813 432.178 351.264 432 351.787 432C352.31 432 352.757 432.178 353.128 432.534C353.507 432.89 353.696 433.318 353.696 433.818C353.696 434.318 353.507 434.746 353.128 435.102C352.757 435.458 352.31 435.636 351.787 435.636ZM365.108 456.364C363.472 456.364 362.063 455.977 360.881 455.205C359.699 454.432 358.79 453.367 358.153 452.011C357.517 450.655 357.199 449.106 357.199 447.364C357.199 445.591 357.525 444.027 358.176 442.67C358.835 441.307 359.752 440.242 360.926 439.477C362.108 438.705 363.487 438.318 365.062 438.318C366.29 438.318 367.396 438.545 368.381 439C369.366 439.455 370.172 440.091 370.801 440.909C371.43 441.727 371.82 442.682 371.972 443.773H369.29C369.085 442.977 368.631 442.273 367.926 441.659C367.229 441.038 366.29 440.727 365.108 440.727C364.063 440.727 363.146 441 362.358 441.545C361.578 442.083 360.968 442.845 360.528 443.83C360.097 444.807 359.881 445.955 359.881 447.273C359.881 448.621 360.093 449.795 360.517 450.795C360.949 451.795 361.555 452.572 362.335 453.125C363.123 453.678 364.047 453.955 365.108 453.955C365.805 453.955 366.438 453.833 367.006 453.591C367.574 453.348 368.055 453 368.449 452.545C368.843 452.091 369.123 451.545 369.29 450.909H371.972C371.82 451.939 371.445 452.867 370.847 453.693C370.256 454.511 369.472 455.163 368.494 455.648C367.525 456.125 366.396 456.364 365.108 456.364ZM375.892 456V438.545H378.574V456H375.892ZM377.256 435.636C376.733 435.636 376.282 435.458 375.903 435.102C375.532 434.746 375.347 434.318 375.347 433.818C375.347 433.318 375.532 432.89 375.903 432.534C376.282 432.178 376.733 432 377.256 432C377.778 432 378.225 432.178 378.597 432.534C378.975 432.89 379.165 433.318 379.165 433.818C379.165 434.318 378.975 434.746 378.597 435.102C378.225 435.458 377.778 435.636 377.256 435.636ZM383.486 462.545V438.545H386.077V441.318H386.395C386.592 441.015 386.865 440.629 387.213 440.159C387.569 439.682 388.077 439.258 388.736 438.886C389.402 438.508 390.304 438.318 391.44 438.318C392.91 438.318 394.205 438.686 395.327 439.42C396.448 440.155 397.323 441.197 397.952 442.545C398.58 443.894 398.895 445.485 398.895 447.318C398.895 449.167 398.58 450.769 397.952 452.125C397.323 453.473 396.452 454.519 395.338 455.261C394.224 455.996 392.94 456.364 391.486 456.364C390.365 456.364 389.467 456.178 388.793 455.807C388.118 455.428 387.599 455 387.236 454.523C386.872 454.038 386.592 453.636 386.395 453.318H386.168V462.545H383.486ZM386.122 447.273C386.122 448.591 386.315 449.754 386.702 450.761C387.088 451.761 387.652 452.545 388.395 453.114C389.137 453.674 390.046 453.955 391.122 453.955C392.243 453.955 393.179 453.659 393.929 453.068C394.687 452.47 395.255 451.667 395.634 450.659C396.02 449.644 396.213 448.515 396.213 447.273C396.213 446.045 396.024 444.939 395.645 443.955C395.274 442.962 394.709 442.178 393.952 441.602C393.202 441.019 392.259 440.727 391.122 440.727C390.031 440.727 389.115 441.004 388.372 441.557C387.63 442.102 387.069 442.867 386.69 443.852C386.312 444.83 386.122 445.97 386.122 447.273ZM408.122 456.409C407.016 456.409 406.012 456.201 405.111 455.784C404.209 455.36 403.493 454.75 402.963 453.955C402.433 453.152 402.168 452.182 402.168 451.045C402.168 450.045 402.365 449.235 402.759 448.614C403.152 447.985 403.679 447.492 404.338 447.136C404.997 446.78 405.724 446.515 406.52 446.341C407.323 446.159 408.13 446.015 408.94 445.909C410.001 445.773 410.861 445.67 411.52 445.602C412.187 445.527 412.671 445.402 412.974 445.227C413.285 445.053 413.44 444.75 413.44 444.318V444.227C413.44 443.106 413.134 442.235 412.52 441.614C411.914 440.992 410.993 440.682 409.759 440.682C408.478 440.682 407.474 440.962 406.747 441.523C406.02 442.083 405.509 442.682 405.213 443.318L402.668 442.409C403.122 441.348 403.728 440.523 404.486 439.932C405.251 439.333 406.084 438.917 406.986 438.682C407.895 438.439 408.789 438.318 409.668 438.318C410.228 438.318 410.872 438.386 411.599 438.523C412.334 438.652 413.043 438.92 413.724 439.33C414.414 439.739 414.986 440.356 415.44 441.182C415.895 442.008 416.122 443.114 416.122 444.5V456H413.44V453.636H413.304C413.122 454.015 412.819 454.42 412.395 454.852C411.971 455.284 411.406 455.652 410.702 455.955C409.997 456.258 409.137 456.409 408.122 456.409ZM408.531 454C409.592 454 410.486 453.792 411.213 453.375C411.948 452.958 412.501 452.42 412.872 451.761C413.251 451.102 413.44 450.409 413.44 449.682V447.227C413.327 447.364 413.077 447.489 412.69 447.602C412.312 447.708 411.872 447.803 411.372 447.886C410.88 447.962 410.399 448.03 409.929 448.091C409.467 448.144 409.092 448.189 408.804 448.227C408.107 448.318 407.455 448.466 406.849 448.67C406.251 448.867 405.766 449.167 405.395 449.568C405.031 449.962 404.849 450.5 404.849 451.182C404.849 452.114 405.194 452.818 405.884 453.295C406.58 453.765 407.463 454 408.531 454ZM423.699 445.5V456H421.017V438.545H423.608V441.273H423.835C424.244 440.386 424.866 439.674 425.699 439.136C426.532 438.591 427.608 438.318 428.926 438.318C430.108 438.318 431.142 438.561 432.028 439.045C432.915 439.523 433.604 440.25 434.097 441.227C434.589 442.197 434.835 443.424 434.835 444.909V456H432.153V445.091C432.153 443.72 431.797 442.652 431.085 441.886C430.373 441.114 429.396 440.727 428.153 440.727C427.297 440.727 426.532 440.913 425.858 441.284C425.191 441.655 424.665 442.197 424.278 442.909C423.892 443.621 423.699 444.485 423.699 445.5ZM447.327 438.545V440.818H438.281V438.545H447.327ZM440.918 434.364H443.599V451C443.599 451.758 443.709 452.326 443.929 452.705C444.156 453.076 444.444 453.326 444.793 453.455C445.149 453.576 445.524 453.636 445.918 453.636C446.213 453.636 446.455 453.621 446.645 453.591C446.834 453.553 446.986 453.523 447.099 453.5L447.645 455.909C447.463 455.977 447.209 456.045 446.884 456.114C446.558 456.189 446.145 456.227 445.645 456.227C444.887 456.227 444.145 456.064 443.418 455.739C442.698 455.413 442.099 454.917 441.622 454.25C441.152 453.583 440.918 452.742 440.918 451.727V434.364ZM463.412 442.455L461.003 443.136C460.851 442.735 460.628 442.345 460.332 441.966C460.045 441.58 459.651 441.261 459.151 441.011C458.651 440.761 458.01 440.636 457.23 440.636C456.162 440.636 455.272 440.883 454.56 441.375C453.855 441.86 453.503 442.477 453.503 443.227C453.503 443.894 453.745 444.42 454.23 444.807C454.715 445.193 455.473 445.515 456.503 445.773L459.094 446.409C460.654 446.788 461.817 447.367 462.582 448.148C463.348 448.92 463.73 449.917 463.73 451.136C463.73 452.136 463.442 453.03 462.866 453.818C462.298 454.606 461.503 455.227 460.48 455.682C459.457 456.136 458.268 456.364 456.912 456.364C455.132 456.364 453.658 455.977 452.491 455.205C451.325 454.432 450.586 453.303 450.276 451.818L452.821 451.182C453.063 452.121 453.522 452.826 454.196 453.295C454.878 453.765 455.768 454 456.866 454C458.116 454 459.109 453.735 459.844 453.205C460.586 452.667 460.957 452.023 460.957 451.273C460.957 450.667 460.745 450.159 460.321 449.75C459.897 449.333 459.245 449.023 458.366 448.818L455.457 448.136C453.859 447.758 452.685 447.17 451.935 446.375C451.192 445.572 450.821 444.568 450.821 443.364C450.821 442.379 451.098 441.508 451.651 440.75C452.211 439.992 452.973 439.398 453.935 438.966C454.904 438.534 456.003 438.318 457.23 438.318C458.957 438.318 460.313 438.697 461.298 439.455C462.291 440.212 462.995 441.212 463.412 442.455Z" fill="black"/>
<path d="M2.81818 258V234.727H5.63636V245.091H18.0455V234.727H20.8636V258H18.0455V247.591H5.63636V258H2.81818ZM33.233 258.364C31.6572 258.364 30.2746 257.989 29.0852 257.239C27.9034 256.489 26.9792 255.439 26.3125 254.091C25.6534 252.742 25.3239 251.167 25.3239 249.364C25.3239 247.545 25.6534 245.958 26.3125 244.602C26.9792 243.246 27.9034 242.193 29.0852 241.443C30.2746 240.693 31.6572 240.318 33.233 240.318C34.8087 240.318 36.1875 240.693 37.3693 241.443C38.5587 242.193 39.483 243.246 40.142 244.602C40.8087 245.958 41.142 247.545 41.142 249.364C41.142 251.167 40.8087 252.742 40.142 254.091C39.483 255.439 38.5587 256.489 37.3693 257.239C36.1875 257.989 34.8087 258.364 33.233 258.364ZM33.233 255.955C34.4299 255.955 35.4148 255.648 36.1875 255.034C36.9602 254.42 37.5322 253.614 37.9034 252.614C38.2746 251.614 38.4602 250.53 38.4602 249.364C38.4602 248.197 38.2746 247.11 37.9034 246.102C37.5322 245.095 36.9602 244.28 36.1875 243.659C35.4148 243.038 34.4299 242.727 33.233 242.727C32.036 242.727 31.0511 243.038 30.2784 243.659C29.5057 244.28 28.9337 245.095 28.5625 246.102C28.1913 247.11 28.0057 248.197 28.0057 249.364C28.0057 250.53 28.1913 251.614 28.5625 252.614C28.9337 253.614 29.5057 254.42 30.2784 255.034C31.0511 255.648 32.036 255.955 33.233 255.955ZM56.2358 250.864V240.545H58.9176V258H56.2358V255.045H56.054C55.6449 255.932 55.0085 256.686 54.1449 257.307C53.2813 257.92 52.1903 258.227 50.8722 258.227C49.7812 258.227 48.8116 257.989 47.9631 257.511C47.1146 257.027 46.4479 256.299 45.9631 255.33C45.4782 254.352 45.2358 253.121 45.2358 251.636V240.545H47.9176V251.455C47.9176 252.727 48.2737 253.742 48.9858 254.5C49.7055 255.258 50.6222 255.636 51.7358 255.636C52.4025 255.636 53.0805 255.466 53.7699 255.125C54.4669 254.784 55.0502 254.261 55.5199 253.557C55.9972 252.852 56.2358 251.955 56.2358 250.864ZM63.8295 258V240.545H66.4205V243.182H66.6023C66.9205 242.318 67.4962 241.617 68.3295 241.08C69.1629 240.542 70.1023 240.273 71.1477 240.273C71.3447 240.273 71.5909 240.277 71.8864 240.284C72.1818 240.292 72.4053 240.303 72.5568 240.318V243.045C72.4659 243.023 72.2576 242.989 71.9318 242.943C71.6136 242.89 71.2765 242.864 70.9205 242.864C70.072 242.864 69.3144 243.042 68.6477 243.398C67.9886 243.746 67.4659 244.231 67.0795 244.852C66.7008 245.466 66.5114 246.167 66.5114 246.955V258H63.8295ZM88.0994 244.455L85.6903 245.136C85.5388 244.735 85.3153 244.345 85.0199 243.966C84.732 243.58 84.3381 243.261 83.8381 243.011C83.3381 242.761 82.6979 242.636 81.9176 242.636C80.8494 242.636 79.9593 242.883 79.2472 243.375C78.5426 243.86 78.1903 244.477 78.1903 245.227C78.1903 245.894 78.4328 246.42 78.9176 246.807C79.4025 247.193 80.16 247.515 81.1903 247.773L83.7812 248.409C85.3419 248.788 86.5047 249.367 87.2699 250.148C88.035 250.92 88.4176 251.917 88.4176 253.136C88.4176 254.136 88.1297 255.03 87.554 255.818C86.9858 256.606 86.1903 257.227 85.1676 257.682C84.1449 258.136 82.9555 258.364 81.5994 258.364C79.8191 258.364 78.3456 257.977 77.179 257.205C76.0123 256.432 75.2737 255.303 74.9631 253.818L77.5085 253.182C77.7509 254.121 78.2093 254.826 78.8835 255.295C79.5653 255.765 80.4555 256 81.554 256C82.804 256 83.7964 255.735 84.5312 255.205C85.2737 254.667 85.6449 254.023 85.6449 253.273C85.6449 252.667 85.4328 252.159 85.0085 251.75C84.5843 251.333 83.9328 251.023 83.054 250.818L80.1449 250.136C78.5464 249.758 77.3722 249.17 76.6222 248.375C75.8797 247.572 75.5085 246.568 75.5085 245.364C75.5085 244.379 75.785 243.508 76.3381 242.75C76.8987 241.992 77.66 241.398 78.6222 240.966C79.5919 240.534 80.6903 240.318 81.9176 240.318C83.6449 240.318 85.0009 240.697 85.9858 241.455C86.9782 242.212 87.6828 243.212 88.0994 244.455Z" fill="black"/>
<path d="M133.115 117.199C132.187 117.199 131.361 117.024 130.636 116.673C129.912 116.323 129.344 115.845 128.932 115.239C128.52 114.628 128.314 113.939 128.314 113.172C128.314 112.571 128.439 112.009 128.69 111.489C128.941 110.963 129.287 110.523 129.727 110.168C130.168 109.808 130.662 109.573 131.212 109.464V109.386C130.497 109.178 129.921 108.768 129.486 108.158C129.05 107.542 128.835 106.844 128.839 106.062C128.835 105.338 129.019 104.689 129.393 104.116C129.768 103.544 130.277 103.091 130.92 102.76C131.569 102.424 132.301 102.256 133.115 102.256C133.925 102.256 134.652 102.424 135.295 102.76C135.939 103.091 136.448 103.544 136.822 104.116C137.201 104.689 137.393 105.338 137.398 106.062C137.393 106.839 137.173 107.537 136.737 108.158C136.302 108.773 135.729 109.183 135.018 109.386V109.464C135.568 109.569 136.06 109.801 136.496 110.161C136.931 110.52 137.277 110.963 137.533 111.489C137.788 112.009 137.916 112.571 137.916 113.172C137.916 113.939 137.708 114.628 137.291 115.239C136.879 115.845 136.311 116.323 135.587 116.673C134.867 117.024 134.043 117.199 133.115 117.199ZM133.115 116.006C133.806 116.006 134.412 115.883 134.933 115.636C135.459 115.385 135.868 115.042 136.162 114.607C136.46 114.171 136.609 113.671 136.609 113.108C136.609 112.526 136.455 112.007 136.148 111.553C135.84 111.093 135.423 110.731 134.898 110.466C134.372 110.196 133.778 110.061 133.115 110.061C132.452 110.061 131.856 110.196 131.325 110.466C130.8 110.731 130.383 111.093 130.075 111.553C129.772 112.007 129.621 112.526 129.621 113.108C129.621 113.671 129.765 114.171 130.054 114.607C130.348 115.042 130.757 115.385 131.283 115.636C131.813 115.883 132.424 116.006 133.115 116.006ZM133.115 108.925C133.683 108.925 134.192 108.804 134.642 108.562C135.092 108.321 135.447 107.992 135.707 107.575C135.973 107.154 136.107 106.676 136.112 106.141C136.107 105.61 135.975 105.142 135.714 104.734C135.454 104.322 135.099 104.003 134.649 103.776C134.204 103.544 133.693 103.428 133.115 103.428C132.537 103.428 132.021 103.544 131.567 103.776C131.117 104.003 130.762 104.322 130.501 104.734C130.246 105.142 130.12 105.61 130.125 106.141C130.12 106.676 130.248 107.154 130.509 107.575C130.774 107.992 131.131 108.321 131.581 108.562C132.036 108.804 132.547 108.925 133.115 108.925Z" fill="black"/>
<path d="M129.038 156L135.665 142.74V142.648H128.03V141.455H137.057V142.705L130.438 156H129.038Z" fill="black"/>
<path d="M133.2 195.199C132.599 195.194 132.012 195.073 131.439 194.837C130.866 194.595 130.35 194.209 129.891 193.679C129.431 193.144 129.067 192.438 128.797 191.562C128.527 190.687 128.392 189.609 128.392 188.331C128.392 187.147 128.496 186.063 128.705 185.078C128.913 184.093 129.225 183.241 129.642 182.521C130.059 181.802 130.58 181.245 131.205 180.852C131.83 180.455 132.561 180.256 133.399 180.256C134.185 180.256 134.879 180.419 135.48 180.746C136.081 181.068 136.569 181.518 136.943 182.095C137.317 182.673 137.552 183.338 137.646 184.091H136.339C136.207 183.324 135.892 182.692 135.395 182.195C134.898 181.697 134.232 181.449 133.399 181.449C132.206 181.449 131.283 182.003 130.629 183.111C129.976 184.214 129.647 185.781 129.642 187.812H129.734C129.966 187.382 130.265 187.01 130.629 186.697C130.999 186.38 131.418 186.134 131.886 185.959C132.355 185.779 132.848 185.689 133.364 185.689C134.173 185.689 134.914 185.895 135.587 186.307C136.259 186.714 136.796 187.275 137.199 187.99C137.601 188.7 137.803 189.512 137.803 190.426C137.803 191.293 137.611 192.09 137.227 192.82C136.848 193.549 136.313 194.129 135.622 194.56C134.936 194.991 134.128 195.204 133.2 195.199ZM133.2 194.006C133.835 194.006 134.401 193.845 134.898 193.523C135.4 193.201 135.795 192.77 136.084 192.23C136.373 191.686 136.517 191.084 136.517 190.426C136.517 189.768 136.373 189.171 136.084 188.636C135.795 188.101 135.4 187.675 134.898 187.358C134.401 187.041 133.835 186.882 133.2 186.882C132.717 186.882 132.268 186.982 131.851 187.18C131.434 187.375 131.072 187.642 130.764 187.983C130.461 188.319 130.229 188.705 130.068 189.141C129.912 189.576 129.853 190.033 129.891 190.511C129.943 191.179 130.116 191.778 130.409 192.308C130.707 192.834 131.096 193.248 131.574 193.551C132.057 193.854 132.599 194.006 133.2 194.006Z" fill="black"/>
<path d="M132.874 234.199C132.064 234.199 131.339 234.036 130.7 233.709C130.066 233.377 129.559 232.923 129.18 232.345C128.806 231.768 128.607 231.107 128.584 230.364H129.869C129.912 231.135 130.215 231.77 130.778 232.267C131.342 232.759 132.04 233.006 132.874 233.006C133.522 233.006 134.1 232.852 134.607 232.544C135.113 232.232 135.509 231.805 135.793 231.266C136.081 230.721 136.226 230.108 136.226 229.426C136.221 228.716 136.067 228.091 135.764 227.551C135.461 227.007 135.049 226.58 134.528 226.273C134.012 225.965 133.432 225.811 132.788 225.811C132.301 225.806 131.822 225.887 131.354 226.053C130.885 226.218 130.494 226.431 130.182 226.692L128.854 226.521L129.727 219.455H136.915V220.648H130.842L130.26 225.513H130.331C130.653 225.243 131.044 225.023 131.503 224.852C131.967 224.682 132.457 224.597 132.973 224.597C133.83 224.597 134.599 224.803 135.281 225.214C135.968 225.626 136.51 226.195 136.908 226.919C137.31 227.639 137.511 228.467 137.511 229.405C137.511 230.323 137.31 231.145 136.908 231.869C136.51 232.589 135.961 233.157 135.26 233.574C134.564 233.991 133.768 234.199 132.874 234.199Z" fill="black"/>
<path d="M128.271 269.875V268.795L134.756 258.455H135.551V260.266H134.962L129.756 268.589V268.682H138.257V269.875H128.271ZM135.061 273V269.534V269.037V258.455H136.325V273H135.061Z" fill="black"/>
<path d="M133.342 312.199C132.447 312.199 131.647 312.038 130.942 311.716C130.236 311.389 129.678 310.937 129.266 310.359C128.854 309.782 128.636 309.116 128.612 308.364H129.955C129.978 308.894 130.142 309.358 130.445 309.756C130.748 310.149 131.15 310.456 131.652 310.679C132.154 310.897 132.713 311.006 133.328 311.006C134 311.006 134.592 310.88 135.104 310.629C135.62 310.378 136.022 310.035 136.311 309.599C136.605 309.159 136.751 308.662 136.751 308.108C136.751 307.521 136.602 307.002 136.304 306.553C136.006 306.103 135.577 305.752 135.018 305.501C134.464 305.25 133.802 305.125 133.03 305.125H132.178V303.932H133.03C133.66 303.932 134.216 303.818 134.699 303.591C135.187 303.359 135.57 303.035 135.849 302.618C136.129 302.201 136.268 301.711 136.268 301.148C136.268 300.613 136.148 300.142 135.906 299.734C135.665 299.327 135.324 299.008 134.884 298.776C134.448 298.544 133.939 298.428 133.357 298.428C132.793 298.428 132.277 298.536 131.808 298.754C131.339 298.972 130.961 299.28 130.672 299.678C130.388 300.075 130.236 300.546 130.217 301.091H128.932C128.951 300.333 129.159 299.668 129.557 299.095C129.959 298.518 130.492 298.068 131.155 297.746C131.822 297.419 132.561 297.256 133.371 297.256C134.228 297.256 134.969 297.431 135.594 297.781C136.219 298.132 136.702 298.598 137.043 299.18C137.388 299.758 137.561 300.395 137.561 301.091C137.561 301.92 137.336 302.63 136.886 303.222C136.437 303.809 135.83 304.216 135.068 304.443V304.536C135.996 304.72 136.725 305.132 137.256 305.771C137.791 306.406 138.058 307.185 138.058 308.108C138.058 308.884 137.855 309.583 137.447 310.203C137.04 310.819 136.482 311.306 135.771 311.666C135.066 312.021 134.256 312.199 133.342 312.199Z" fill="black"/>
<path d="M128.619 351V350.027L133.371 344.686C133.991 343.985 134.491 343.386 134.869 342.889C135.248 342.392 135.523 341.933 135.693 341.511C135.868 341.09 135.956 340.652 135.956 340.197C135.956 339.643 135.826 339.161 135.565 338.749C135.31 338.332 134.957 338.008 134.507 337.776C134.057 337.544 133.551 337.428 132.987 337.428C132.391 337.428 131.867 337.555 131.418 337.811C130.973 338.067 130.627 338.417 130.381 338.862C130.134 339.307 130.011 339.819 130.011 340.396H128.74C128.74 339.591 128.925 338.879 129.294 338.259C129.668 337.634 130.177 337.143 130.821 336.788C131.47 336.433 132.204 336.256 133.023 336.256C133.832 336.256 134.552 336.431 135.182 336.781C135.812 337.127 136.306 337.598 136.666 338.195C137.026 338.791 137.206 339.459 137.206 340.197C137.206 340.732 137.111 341.251 136.922 341.753C136.737 342.255 136.418 342.813 135.963 343.429C135.509 344.045 134.879 344.797 134.074 345.688L130.466 349.714V349.807H137.661V351H128.619Z" fill="black"/>
<path d="M133.108 375.455V390H131.78V376.847H131.695L128.286 379.112V377.734L131.723 375.455H133.108Z" fill="black"/>
<rect x="188" y="156" width="24" height="244" fill="url(#paint0_linear_3_211)"/>
<rect x="244" y="92" width="24" height="308" fill="url(#paint1_linear_3_211)"/>
<rect x="300" y="147" width="24" height="253" fill="url(#paint2_linear_3_211)"/>
<rect x="356" y="239" width="24" height="161" fill="url(#paint3_linear_3_211)"/>
<rect x="412" y="167" width="24" height="233" fill="url(#paint4_linear_3_211)"/>
<rect x="468" y="137" width="24" height="263" fill="url(#paint5_linear_3_211)"/>
<defs>
<linearGradient id="paint0_linear_3_211" x1="200" y1="156" x2="200" y2="400" gradientUnits="userSpaceOnUse">
<stop stop-color="#0085FF"/>
<stop offset="1" stop-color="#00417D"/>
</linearGradient>
<linearGradient id="paint1_linear_3_211" x1="256" y1="92" x2="256" y2="400" gradientUnits="userSpaceOnUse">
<stop stop-color="#0085FF"/>
<stop offset="1" stop-color="#00417D"/>
</linearGradient>
<linearGradient id="paint2_linear_3_211" x1="312" y1="147" x2="312" y2="400" gradientUnits="userSpaceOnUse">
<stop stop-color="#0085FF"/>
<stop offset="1" stop-color="#00417D"/>
</linearGradient>
<linearGradient id="paint3_linear_3_211" x1="368" y1="239" x2="368" y2="400" gradientUnits="userSpaceOnUse">
<stop stop-color="#0085FF"/>
<stop offset="1" stop-color="#00417D"/>
</linearGradient>
<linearGradient id="paint4_linear_3_211" x1="424" y1="167" x2="424" y2="400" gradientUnits="userSpaceOnUse">
<stop stop-color="#0085FF"/>
<stop offset="1" stop-color="#00417D"/>
</linearGradient>
<linearGradient id="paint5_linear_3_211" x1="480" y1="137" x2="480" y2="400" gradientUnits="userSpaceOnUse">
<stop stop-color="#0085FF"/>
<stop offset="1" stop-color="#00417D"/>
</linearGradient>
</defs>
</svg>
