<svg width="584" height="464" viewBox="0 0 584 464" fill="none" xmlns="http://www.w3.org/2000/svg">
<path d="M80.4318 12.794V8.81818H101.321V12.794H93.2287V35H88.5241V12.794H80.4318ZM105.143 35V15.3636H109.771V35H105.143ZM107.47 12.5767C106.737 12.5767 106.107 12.3338 105.578 11.848C105.05 11.3537 104.786 10.7614 104.786 10.071C104.786 9.37216 105.05 8.77983 105.578 8.29403C106.107 7.79971 106.737 7.55256 107.47 7.55256C108.212 7.55256 108.842 7.79971 109.362 8.29403C109.891 8.77983 110.155 9.37216 110.155 10.071C110.155 10.7614 109.891 11.3537 109.362 11.848C108.842 12.3338 108.212 12.5767 107.47 12.5767ZM114.53 35V15.3636H118.953V18.7003H119.184C119.593 17.5753 120.27 16.6974 121.216 16.0668C122.162 15.4276 123.292 15.108 124.604 15.108C125.934 15.108 127.054 15.4318 127.966 16.0795C128.887 16.7187 129.534 17.5923 129.909 18.7003H130.114C130.549 17.6094 131.282 16.7401 132.313 16.0923C133.353 15.4361 134.584 15.108 136.007 15.108C137.814 15.108 139.289 15.679 140.431 16.821C141.573 17.9631 142.144 19.6293 142.144 21.8196V35H137.503V22.5355C137.503 21.3168 137.179 20.4261 136.532 19.8636C135.884 19.2926 135.091 19.0071 134.154 19.0071C133.037 19.0071 132.164 19.3565 131.533 20.0554C130.911 20.7457 130.6 21.6449 130.6 22.7528V35H126.061V22.3438C126.061 21.3295 125.755 20.5199 125.141 19.9148C124.536 19.3097 123.743 19.0071 122.763 19.0071C122.098 19.0071 121.493 19.1776 120.948 19.5185C120.402 19.8509 119.968 20.3239 119.644 20.9375C119.32 21.5426 119.158 22.25 119.158 23.0597V35H114.53ZM155.532 35.3835C153.563 35.3835 151.863 34.9744 150.431 34.1562C149.008 33.3295 147.913 32.1619 147.146 30.6534C146.379 29.1364 145.995 27.3509 145.995 25.2969C145.995 23.277 146.379 21.5043 147.146 19.9787C147.921 18.4446 149.004 17.2514 150.393 16.3991C151.782 15.5384 153.414 15.108 155.289 15.108C156.499 15.108 157.641 15.304 158.715 15.696C159.798 16.0795 160.752 16.6761 161.579 17.4858C162.414 18.2955 163.07 19.3267 163.548 20.5795C164.025 21.8239 164.263 23.3068 164.263 25.0284V26.4474H148.168V23.3281H159.827C159.819 22.4418 159.627 21.6534 159.252 20.9631C158.877 20.2642 158.353 19.7145 157.68 19.3139C157.015 18.9134 156.239 18.7131 155.353 18.7131C154.407 18.7131 153.576 18.9432 152.86 19.4034C152.144 19.8551 151.586 20.4517 151.185 21.1932C150.793 21.9261 150.593 22.7315 150.585 23.6094V26.3324C150.585 27.4744 150.793 28.4545 151.211 29.2727C151.629 30.0824 152.212 30.7045 152.962 31.1392C153.712 31.5653 154.59 31.7784 155.596 31.7784C156.269 31.7784 156.879 31.6847 157.424 31.4972C157.969 31.3011 158.442 31.0156 158.843 30.6406C159.244 30.2656 159.546 29.8011 159.751 29.2472L164.072 29.733C163.799 30.875 163.279 31.8722 162.512 32.7244C161.754 33.5682 160.782 34.2244 159.597 34.6932C158.413 35.1534 157.058 35.3835 155.532 35.3835ZM192.628 20.554L188.409 21.0142C188.29 20.5881 188.081 20.1875 187.783 19.8125C187.493 19.4375 187.101 19.1349 186.607 18.9048C186.113 18.6747 185.507 18.5597 184.792 18.5597C183.828 18.5597 183.019 18.7685 182.363 19.1861C181.715 19.6037 181.395 20.1449 181.404 20.8097C181.395 21.3807 181.604 21.8452 182.03 22.2031C182.465 22.5611 183.181 22.8551 184.178 23.0852L187.527 23.8011C189.385 24.2017 190.766 24.8366 191.669 25.706C192.581 26.5753 193.042 27.7131 193.05 29.1193C193.042 30.3551 192.679 31.446 191.963 32.392C191.256 33.3295 190.272 34.0625 189.01 34.5909C187.749 35.1193 186.3 35.3835 184.664 35.3835C182.26 35.3835 180.326 34.8807 178.86 33.875C177.394 32.8608 176.52 31.4503 176.239 29.6435L180.752 29.2088C180.956 30.0952 181.391 30.7642 182.056 31.2159C182.721 31.6676 183.586 31.8935 184.651 31.8935C185.75 31.8935 186.632 31.6676 187.297 31.2159C187.971 30.7642 188.307 30.206 188.307 29.5412C188.307 28.9787 188.09 28.5142 187.655 28.1477C187.229 27.7812 186.564 27.5 185.661 27.304L182.311 26.6009C180.428 26.2088 179.034 25.5483 178.131 24.6193C177.228 23.6818 176.78 22.4972 176.789 21.0653C176.78 19.8551 177.108 18.8068 177.773 17.9205C178.446 17.0256 179.38 16.3352 180.573 15.8494C181.775 15.3551 183.159 15.108 184.728 15.108C187.029 15.108 188.84 15.598 190.161 16.5781C191.49 17.5582 192.313 18.8835 192.628 20.554ZM202.517 35.3963C201.272 35.3963 200.152 35.1747 199.154 34.7315C198.166 34.2798 197.382 33.6151 196.802 32.7372C196.231 31.8594 195.946 30.777 195.946 29.4901C195.946 28.3821 196.15 27.4659 196.559 26.7415C196.968 26.017 197.527 25.4375 198.234 25.0028C198.941 24.5682 199.738 24.2401 200.625 24.0185C201.52 23.7884 202.444 23.6222 203.399 23.5199C204.549 23.4006 205.483 23.294 206.199 23.2003C206.914 23.098 207.434 22.9446 207.758 22.7401C208.091 22.527 208.257 22.1989 208.257 21.7557V21.679C208.257 20.7159 207.971 19.9702 207.4 19.4418C206.829 18.9134 206.007 18.6491 204.933 18.6491C203.799 18.6491 202.9 18.8963 202.235 19.3906C201.579 19.8849 201.136 20.4687 200.906 21.142L196.585 20.5284C196.926 19.3352 197.488 18.3381 198.272 17.5369C199.056 16.7273 200.015 16.1222 201.149 15.7216C202.282 15.3125 203.535 15.108 204.907 15.108C205.853 15.108 206.795 15.2188 207.733 15.4403C208.67 15.6619 209.527 16.0284 210.302 16.5398C211.078 17.0426 211.7 17.7287 212.169 18.598C212.646 19.4673 212.885 20.554 212.885 21.858V35H208.436V32.3026H208.282C208.001 32.848 207.605 33.3594 207.093 33.8366C206.591 34.3054 205.956 34.6847 205.189 34.9744C204.43 35.2557 203.539 35.3963 202.517 35.3963ZM203.718 31.9957C204.647 31.9957 205.453 31.8125 206.135 31.446C206.816 31.071 207.341 30.5767 207.707 29.9631C208.082 29.3494 208.27 28.6804 208.27 27.956V25.642C208.125 25.7614 207.877 25.8722 207.528 25.9744C207.187 26.0767 206.804 26.1662 206.377 26.2429C205.951 26.3196 205.529 26.3878 205.112 26.4474C204.694 26.5071 204.332 26.5582 204.025 26.6009C203.335 26.6946 202.717 26.848 202.172 27.0611C201.626 27.2741 201.196 27.5724 200.88 27.956C200.565 28.331 200.407 28.8168 200.407 29.4134C200.407 30.2656 200.718 30.9091 201.341 31.3438C201.963 31.7784 202.755 31.9957 203.718 31.9957ZM234.375 15.3636L227.382 35H222.268L215.275 15.3636H220.21L224.723 29.9503H224.927L229.453 15.3636H234.375ZM245.602 35.3835C243.634 35.3835 241.933 34.9744 240.501 34.1562C239.078 33.3295 237.983 32.1619 237.216 30.6534C236.449 29.1364 236.065 27.3509 236.065 25.2969C236.065 23.277 236.449 21.5043 237.216 19.9787C237.991 18.4446 239.074 17.2514 240.463 16.3991C241.852 15.5384 243.484 15.108 245.359 15.108C246.57 15.108 247.712 15.304 248.786 15.696C249.868 16.0795 250.822 16.6761 251.649 17.4858C252.484 18.2955 253.141 19.3267 253.618 20.5795C254.095 21.8239 254.334 23.3068 254.334 25.0284V26.4474H238.239V23.3281H249.898C249.889 22.4418 249.697 21.6534 249.322 20.9631C248.947 20.2642 248.423 19.7145 247.75 19.3139C247.085 18.9134 246.31 18.7131 245.423 18.7131C244.477 18.7131 243.646 18.9432 242.93 19.4034C242.214 19.8551 241.656 20.4517 241.256 21.1932C240.864 21.9261 240.663 22.7315 240.655 23.6094V26.3324C240.655 27.4744 240.864 28.4545 241.281 29.2727C241.699 30.0824 242.283 30.7045 243.033 31.1392C243.783 31.5653 244.661 31.7784 245.666 31.7784C246.339 31.7784 246.949 31.6847 247.494 31.4972C248.04 31.3011 248.513 31.0156 248.913 30.6406C249.314 30.2656 249.616 29.8011 249.821 29.2472L254.142 29.733C253.869 30.875 253.349 31.8722 252.582 32.7244C251.824 33.5682 250.852 34.2244 249.668 34.6932C248.483 35.1534 247.128 35.3835 245.602 35.3835ZM265.536 35.3452C263.993 35.3452 262.613 34.9489 261.394 34.1562C260.175 33.3636 259.212 32.2131 258.505 30.7045C257.797 29.196 257.444 27.3636 257.444 25.2074C257.444 23.0256 257.801 21.1847 258.517 19.6847C259.242 18.1761 260.218 17.0384 261.445 16.2713C262.672 15.4957 264.04 15.108 265.549 15.108C266.699 15.108 267.645 15.304 268.387 15.696C269.128 16.0795 269.716 16.544 270.151 17.0895C270.586 17.6264 270.922 18.1335 271.161 18.6108H271.353V8.81818H275.993V35H271.442V31.9062H271.161C270.922 32.3835 270.577 32.8906 270.125 33.4276C269.674 33.956 269.077 34.4077 268.336 34.7827C267.594 35.1577 266.661 35.3452 265.536 35.3452ZM266.827 31.5483C267.807 31.5483 268.642 31.2841 269.333 30.7557C270.023 30.2187 270.547 29.473 270.905 28.5185C271.263 27.5639 271.442 26.4517 271.442 25.1818C271.442 23.9119 271.263 22.8082 270.905 21.8707C270.556 20.9332 270.036 20.2045 269.346 19.6847C268.664 19.1648 267.824 18.9048 266.827 18.9048C265.796 18.9048 264.935 19.1733 264.245 19.7102C263.554 20.2472 263.034 20.9886 262.685 21.9347C262.336 22.8807 262.161 23.9631 262.161 25.1818C262.161 26.4091 262.336 27.5043 262.685 28.4673C263.043 29.4219 263.567 30.1761 264.257 30.7301C264.956 31.2756 265.813 31.5483 266.827 31.5483ZM293.907 35L288.359 15.3636H293.076L296.528 29.1705H296.707L300.235 15.3636H304.901L308.43 29.0938H308.621L312.022 15.3636H316.752L311.191 35H306.371L302.69 21.7301H302.421L298.739 35H293.907ZM319.983 35V15.3636H324.611V35H319.983ZM322.31 12.5767C321.577 12.5767 320.946 12.3338 320.418 11.848C319.89 11.3537 319.625 10.7614 319.625 10.071C319.625 9.37216 319.89 8.77983 320.418 8.29403C320.946 7.79971 321.577 7.55256 322.31 7.55256C323.051 7.55256 323.682 7.79971 324.202 8.29403C324.73 8.77983 324.995 9.37216 324.995 10.071C324.995 10.7614 324.73 11.3537 324.202 11.848C323.682 12.3338 323.051 12.5767 322.31 12.5767ZM339.175 15.3636V18.9432H327.887V15.3636H339.175ZM330.674 10.6591H335.302V29.0938C335.302 29.7159 335.396 30.1932 335.583 30.5256C335.779 30.8494 336.035 31.071 336.35 31.1903C336.665 31.3097 337.015 31.3693 337.398 31.3693C337.688 31.3693 337.952 31.348 338.191 31.3054C338.438 31.2628 338.626 31.2244 338.754 31.1903L339.533 34.8082C339.286 34.8935 338.933 34.9872 338.472 35.0895C338.021 35.1918 337.467 35.2514 336.81 35.2685C335.651 35.3026 334.607 35.1278 333.678 34.7443C332.749 34.3523 332.012 33.7472 331.467 32.929C330.93 32.1108 330.665 31.0881 330.674 29.8608V10.6591ZM348.096 23.4943V35H343.468V8.81818H347.993V18.7003H348.223C348.684 17.5923 349.395 16.7187 350.358 16.0795C351.33 15.4318 352.566 15.108 354.066 15.108C355.429 15.108 356.618 15.3935 357.632 15.9645C358.647 16.5355 359.431 17.3707 359.985 18.4702C360.547 19.5696 360.828 20.9119 360.828 22.4972V35H356.201V23.2131C356.201 21.892 355.86 20.8651 355.178 20.1321C354.505 19.3906 353.559 19.0199 352.34 19.0199C351.522 19.0199 350.789 19.1989 350.141 19.5568C349.502 19.9062 348.999 20.4134 348.632 21.0781C348.275 21.7429 348.096 22.5483 348.096 23.4943ZM384.281 15.3636V18.9432H372.993V15.3636H384.281ZM375.779 10.6591H380.407V29.0938C380.407 29.7159 380.501 30.1932 380.689 30.5256C380.885 30.8494 381.14 31.071 381.456 31.1903C381.771 31.3097 382.12 31.3693 382.504 31.3693C382.794 31.3693 383.058 31.348 383.297 31.3054C383.544 31.2628 383.731 31.2244 383.859 31.1903L384.639 34.8082C384.392 34.8935 384.038 34.9872 383.578 35.0895C383.126 35.1918 382.572 35.2514 381.916 35.2685C380.757 35.3026 379.713 35.1278 378.784 34.7443C377.855 34.3523 377.118 33.7472 376.572 32.929C376.035 32.1108 375.771 31.0881 375.779 29.8608V10.6591ZM393.201 23.4943V35H388.573V8.81818H393.099V18.7003H393.329C393.789 17.5923 394.501 16.7187 395.464 16.0795C396.435 15.4318 397.671 15.108 399.171 15.108C400.535 15.108 401.724 15.3935 402.738 15.9645C403.752 16.5355 404.536 17.3707 405.09 18.4702C405.653 19.5696 405.934 20.9119 405.934 22.4972V35H401.306V23.2131C401.306 21.892 400.965 20.8651 400.283 20.1321C399.61 19.3906 398.664 19.0199 397.445 19.0199C396.627 19.0199 395.894 19.1989 395.246 19.5568C394.607 19.9062 394.104 20.4134 393.738 21.0781C393.38 21.7429 393.201 22.5483 393.201 23.4943ZM419.344 35.3835C417.376 35.3835 415.675 34.9744 414.244 34.1562C412.82 33.3295 411.725 32.1619 410.958 30.6534C410.191 29.1364 409.808 27.3509 409.808 25.2969C409.808 23.277 410.191 21.5043 410.958 19.9787C411.734 18.4446 412.816 17.2514 414.205 16.3991C415.594 15.5384 417.227 15.108 419.102 15.108C420.312 15.108 421.454 15.304 422.528 15.696C423.61 16.0795 424.565 16.6761 425.391 17.4858C426.227 18.2955 426.883 19.3267 427.36 20.5795C427.837 21.8239 428.076 23.3068 428.076 25.0284V26.4474H411.981V23.3281H423.64C423.631 22.4418 423.44 21.6534 423.065 20.9631C422.69 20.2642 422.165 19.7145 421.492 19.3139C420.827 18.9134 420.052 18.7131 419.165 18.7131C418.219 18.7131 417.388 18.9432 416.673 19.4034C415.957 19.8551 415.398 20.4517 414.998 21.1932C414.606 21.9261 414.406 22.7315 414.397 23.6094V26.3324C414.397 27.4744 414.606 28.4545 415.023 29.2727C415.441 30.0824 416.025 30.7045 416.775 31.1392C417.525 31.5653 418.403 31.7784 419.408 31.7784C420.082 31.7784 420.691 31.6847 421.237 31.4972C421.782 31.3011 422.255 31.0156 422.656 30.6406C423.056 30.2656 423.359 29.8011 423.563 29.2472L427.884 29.733C427.612 30.875 427.092 31.8722 426.325 32.7244C425.566 33.5682 424.594 34.2244 423.41 34.6932C422.225 35.1534 420.87 35.3835 419.344 35.3835ZM446.571 35.3963C445.327 35.3963 444.206 35.1747 443.209 34.7315C442.221 34.2798 441.436 33.6151 440.857 32.7372C440.286 31.8594 440 30.777 440 29.4901C440 28.3821 440.205 27.4659 440.614 26.7415C441.023 26.017 441.581 25.4375 442.289 25.0028C442.996 24.5682 443.793 24.2401 444.679 24.0185C445.574 23.7884 446.499 23.6222 447.453 23.5199C448.604 23.4006 449.537 23.294 450.253 23.2003C450.969 23.098 451.489 22.9446 451.813 22.7401C452.145 22.527 452.311 22.1989 452.311 21.7557V21.679C452.311 20.7159 452.026 19.9702 451.455 19.4418C450.884 18.9134 450.061 18.6491 448.988 18.6491C447.854 18.6491 446.955 18.8963 446.29 19.3906C445.634 19.8849 445.191 20.4687 444.961 21.142L440.64 20.5284C440.98 19.3352 441.543 18.3381 442.327 17.5369C443.111 16.7273 444.07 16.1222 445.203 15.7216C446.337 15.3125 447.59 15.108 448.962 15.108C449.908 15.108 450.85 15.2188 451.787 15.4403C452.725 15.6619 453.581 16.0284 454.357 16.5398C455.132 17.0426 455.755 17.7287 456.223 18.598C456.701 19.4673 456.939 20.554 456.939 21.858V35H452.49V32.3026H452.337C452.056 32.848 451.659 33.3594 451.148 33.8366C450.645 34.3054 450.01 34.6847 449.243 34.9744C448.485 35.2557 447.594 35.3963 446.571 35.3963ZM447.773 31.9957C448.702 31.9957 449.507 31.8125 450.189 31.446C450.871 31.071 451.395 30.5767 451.762 29.9631C452.137 29.3494 452.324 28.6804 452.324 27.956V25.642C452.179 25.7614 451.932 25.8722 451.583 25.9744C451.242 26.0767 450.858 26.1662 450.432 26.2429C450.006 26.3196 449.584 26.3878 449.167 26.4474C448.749 26.5071 448.387 26.5582 448.08 26.6009C447.39 26.6946 446.772 26.848 446.226 27.0611C445.681 27.2741 445.25 27.5724 444.935 27.956C444.62 28.331 444.462 28.8168 444.462 29.4134C444.462 30.2656 444.773 30.9091 445.395 31.3438C446.017 31.7784 446.81 31.9957 447.773 31.9957ZM461.593 42.3636V15.3636H466.144V18.6108H466.412C466.651 18.1335 466.988 17.6264 467.422 17.0895C467.857 16.544 468.445 16.0795 469.186 15.696C469.928 15.304 470.874 15.108 472.025 15.108C473.542 15.108 474.909 15.4957 476.128 16.2713C477.355 17.0384 478.327 18.1761 479.043 19.6847C479.767 21.1847 480.13 23.0256 480.13 25.2074C480.13 27.3636 479.776 29.196 479.069 30.7045C478.361 32.2131 477.398 33.3636 476.179 34.1562C474.961 34.9489 473.58 35.3452 472.037 35.3452C470.912 35.3452 469.979 35.1577 469.238 34.7827C468.496 34.4077 467.9 33.956 467.448 33.4276C467.005 32.8906 466.659 32.3835 466.412 31.9062H466.221V42.3636H461.593ZM466.131 25.1818C466.131 26.4517 466.31 27.5639 466.668 28.5185C467.034 29.473 467.559 30.2187 468.24 30.7557C468.931 31.2841 469.766 31.5483 470.746 31.5483C471.769 31.5483 472.625 31.2756 473.316 30.7301C474.006 30.1761 474.526 29.4219 474.875 28.4673C475.233 27.5043 475.412 26.4091 475.412 25.1818C475.412 23.9631 475.238 22.8807 474.888 21.9347C474.539 20.9886 474.019 20.2472 473.328 19.7102C472.638 19.1733 471.777 18.9048 470.746 18.9048C469.757 18.9048 468.918 19.1648 468.228 19.6847C467.537 20.2045 467.013 20.9332 466.655 21.8707C466.306 22.8082 466.131 23.9119 466.131 25.1818ZM484.093 42.3636V15.3636H488.644V18.6108H488.912C489.151 18.1335 489.488 17.6264 489.922 17.0895C490.357 16.544 490.945 16.0795 491.686 15.696C492.428 15.304 493.374 15.108 494.525 15.108C496.042 15.108 497.409 15.4957 498.628 16.2713C499.855 17.0384 500.827 18.1761 501.543 19.6847C502.267 21.1847 502.63 23.0256 502.63 25.2074C502.63 27.3636 502.276 29.196 501.569 30.7045C500.861 32.2131 499.898 33.3636 498.679 34.1562C497.461 34.9489 496.08 35.3452 494.537 35.3452C493.412 35.3452 492.479 35.1577 491.738 34.7827C490.996 34.4077 490.4 33.956 489.948 33.4276C489.505 32.8906 489.159 32.3835 488.912 31.9062H488.721V42.3636H484.093ZM488.631 25.1818C488.631 26.4517 488.81 27.5639 489.168 28.5185C489.534 29.473 490.059 30.2187 490.74 30.7557C491.431 31.2841 492.266 31.5483 493.246 31.5483C494.269 31.5483 495.125 31.2756 495.816 30.7301C496.506 30.1761 497.026 29.4219 497.375 28.4673C497.733 27.5043 497.912 26.4091 497.912 25.1818C497.912 23.9631 497.738 22.8807 497.388 21.9347C497.039 20.9886 496.519 20.2472 495.828 19.7102C495.138 19.1733 494.277 18.9048 493.246 18.9048C492.257 18.9048 491.418 19.1648 490.728 19.6847C490.037 20.2045 489.513 20.9332 489.155 21.8707C488.806 22.8082 488.631 23.9119 488.631 25.1818Z" fill="black"/>
<mask id="path-2-inside-1_3_213" fill="white">
<path d="M156 92H584V401H156V92Z"/>
</mask>
<path d="M156 401H155V402H156V401ZM584 400H156V402H584V400ZM157 401V92H155V401H157Z" fill="black" mask="url(#path-2-inside-1_3_213)"/>
<path d="M287.818 456V432.727H295.682C297.508 432.727 299 433.057 300.159 433.716C301.326 434.367 302.189 435.25 302.75 436.364C303.311 437.477 303.591 438.72 303.591 440.091C303.591 441.462 303.311 442.708 302.75 443.83C302.197 444.951 301.341 445.845 300.182 446.511C299.023 447.17 297.538 447.5 295.727 447.5H290.091V445H295.636C296.886 445 297.89 444.784 298.648 444.352C299.405 443.92 299.955 443.337 300.295 442.602C300.644 441.86 300.818 441.023 300.818 440.091C300.818 439.159 300.644 438.326 300.295 437.591C299.955 436.856 299.402 436.28 298.636 435.864C297.871 435.439 296.856 435.227 295.591 435.227H290.636V456H287.818ZM312.903 456.409C311.797 456.409 310.794 456.201 309.892 455.784C308.991 455.36 308.275 454.75 307.744 453.955C307.214 453.152 306.949 452.182 306.949 451.045C306.949 450.045 307.146 449.235 307.54 448.614C307.934 447.985 308.46 447.492 309.119 447.136C309.778 446.78 310.506 446.515 311.301 446.341C312.104 446.159 312.911 446.015 313.722 445.909C314.782 445.773 315.642 445.67 316.301 445.602C316.968 445.527 317.453 445.402 317.756 445.227C318.066 445.053 318.222 444.75 318.222 444.318V444.227C318.222 443.106 317.915 442.235 317.301 441.614C316.695 440.992 315.775 440.682 314.54 440.682C313.259 440.682 312.256 440.962 311.528 441.523C310.801 442.083 310.29 442.682 309.994 443.318L307.449 442.409C307.903 441.348 308.509 440.523 309.267 439.932C310.032 439.333 310.866 438.917 311.767 438.682C312.676 438.439 313.57 438.318 314.449 438.318C315.009 438.318 315.653 438.386 316.381 438.523C317.116 438.652 317.824 438.92 318.506 439.33C319.195 439.739 319.767 440.356 320.222 441.182C320.676 442.008 320.903 443.114 320.903 444.5V456H318.222V453.636H318.085C317.903 454.015 317.6 454.42 317.176 454.852C316.752 455.284 316.188 455.652 315.483 455.955C314.778 456.258 313.919 456.409 312.903 456.409ZM313.312 454C314.373 454 315.267 453.792 315.994 453.375C316.729 452.958 317.282 452.42 317.653 451.761C318.032 451.102 318.222 450.409 318.222 449.682V447.227C318.108 447.364 317.858 447.489 317.472 447.602C317.093 447.708 316.653 447.803 316.153 447.886C315.661 447.962 315.18 448.03 314.71 448.091C314.248 448.144 313.873 448.189 313.585 448.227C312.888 448.318 312.237 448.466 311.631 448.67C311.032 448.867 310.547 449.167 310.176 449.568C309.813 449.962 309.631 450.5 309.631 451.182C309.631 452.114 309.975 452.818 310.665 453.295C311.362 453.765 312.244 454 313.312 454ZM325.798 456V438.545H328.389V441.182H328.571C328.889 440.318 329.465 439.617 330.298 439.08C331.132 438.542 332.071 438.273 333.116 438.273C333.313 438.273 333.56 438.277 333.855 438.284C334.151 438.292 334.374 438.303 334.526 438.318V441.045C334.435 441.023 334.226 440.989 333.901 440.943C333.582 440.89 333.245 440.864 332.889 440.864C332.041 440.864 331.283 441.042 330.616 441.398C329.957 441.746 329.435 442.231 329.048 442.852C328.67 443.466 328.48 444.167 328.48 444.955V456H325.798ZM346.389 438.545V440.818H337.344V438.545H346.389ZM339.98 434.364H342.662V451C342.662 451.758 342.772 452.326 342.991 452.705C343.219 453.076 343.507 453.326 343.855 453.455C344.211 453.576 344.586 453.636 344.98 453.636C345.276 453.636 345.518 453.621 345.707 453.591C345.897 453.553 346.048 453.523 346.162 453.5L346.707 455.909C346.526 455.977 346.272 456.045 345.946 456.114C345.62 456.189 345.207 456.227 344.707 456.227C343.95 456.227 343.207 456.064 342.48 455.739C341.76 455.413 341.162 454.917 340.685 454.25C340.215 453.583 339.98 452.742 339.98 451.727V434.364ZM350.423 456V438.545H353.105V456H350.423ZM351.787 435.636C351.264 435.636 350.813 435.458 350.435 435.102C350.063 434.746 349.878 434.318 349.878 433.818C349.878 433.318 350.063 432.89 350.435 432.534C350.813 432.178 351.264 432 351.787 432C352.31 432 352.757 432.178 353.128 432.534C353.507 432.89 353.696 433.318 353.696 433.818C353.696 434.318 353.507 434.746 353.128 435.102C352.757 435.458 352.31 435.636 351.787 435.636ZM365.108 456.364C363.472 456.364 362.063 455.977 360.881 455.205C359.699 454.432 358.79 453.367 358.153 452.011C357.517 450.655 357.199 449.106 357.199 447.364C357.199 445.591 357.525 444.027 358.176 442.67C358.835 441.307 359.752 440.242 360.926 439.477C362.108 438.705 363.487 438.318 365.062 438.318C366.29 438.318 367.396 438.545 368.381 439C369.366 439.455 370.172 440.091 370.801 440.909C371.43 441.727 371.82 442.682 371.972 443.773H369.29C369.085 442.977 368.631 442.273 367.926 441.659C367.229 441.038 366.29 440.727 365.108 440.727C364.063 440.727 363.146 441 362.358 441.545C361.578 442.083 360.968 442.845 360.528 443.83C360.097 444.807 359.881 445.955 359.881 447.273C359.881 448.621 360.093 449.795 360.517 450.795C360.949 451.795 361.555 452.572 362.335 453.125C363.123 453.678 364.047 453.955 365.108 453.955C365.805 453.955 366.438 453.833 367.006 453.591C367.574 453.348 368.055 453 368.449 452.545C368.843 452.091 369.123 451.545 369.29 450.909H371.972C371.82 451.939 371.445 452.867 370.847 453.693C370.256 454.511 369.472 455.163 368.494 455.648C367.525 456.125 366.396 456.364 365.108 456.364ZM375.892 456V438.545H378.574V456H375.892ZM377.256 435.636C376.733 435.636 376.282 435.458 375.903 435.102C375.532 434.746 375.347 434.318 375.347 433.818C375.347 433.318 375.532 432.89 375.903 432.534C376.282 432.178 376.733 432 377.256 432C377.778 432 378.225 432.178 378.597 432.534C378.975 432.89 379.165 433.318 379.165 433.818C379.165 434.318 378.975 434.746 378.597 435.102C378.225 435.458 377.778 435.636 377.256 435.636ZM383.486 462.545V438.545H386.077V441.318H386.395C386.592 441.015 386.865 440.629 387.213 440.159C387.569 439.682 388.077 439.258 388.736 438.886C389.402 438.508 390.304 438.318 391.44 438.318C392.91 438.318 394.205 438.686 395.327 439.42C396.448 440.155 397.323 441.197 397.952 442.545C398.58 443.894 398.895 445.485 398.895 447.318C398.895 449.167 398.58 450.769 397.952 452.125C397.323 453.473 396.452 454.519 395.338 455.261C394.224 455.996 392.94 456.364 391.486 456.364C390.365 456.364 389.467 456.178 388.793 455.807C388.118 455.428 387.599 455 387.236 454.523C386.872 454.038 386.592 453.636 386.395 453.318H386.168V462.545H383.486ZM386.122 447.273C386.122 448.591 386.315 449.754 386.702 450.761C387.088 451.761 387.652 452.545 388.395 453.114C389.137 453.674 390.046 453.955 391.122 453.955C392.243 453.955 393.179 453.659 393.929 453.068C394.687 452.47 395.255 451.667 395.634 450.659C396.02 449.644 396.213 448.515 396.213 447.273C396.213 446.045 396.024 444.939 395.645 443.955C395.274 442.962 394.709 442.178 393.952 441.602C393.202 441.019 392.259 440.727 391.122 440.727C390.031 440.727 389.115 441.004 388.372 441.557C387.63 442.102 387.069 442.867 386.69 443.852C386.312 444.83 386.122 445.97 386.122 447.273ZM408.122 456.409C407.016 456.409 406.012 456.201 405.111 455.784C404.209 455.36 403.493 454.75 402.963 453.955C402.433 453.152 402.168 452.182 402.168 451.045C402.168 450.045 402.365 449.235 402.759 448.614C403.152 447.985 403.679 447.492 404.338 447.136C404.997 446.78 405.724 446.515 406.52 446.341C407.323 446.159 408.13 446.015 408.94 445.909C410.001 445.773 410.861 445.67 411.52 445.602C412.187 445.527 412.671 445.402 412.974 445.227C413.285 445.053 413.44 444.75 413.44 444.318V444.227C413.44 443.106 413.134 442.235 412.52 441.614C411.914 440.992 410.993 440.682 409.759 440.682C408.478 440.682 407.474 440.962 406.747 441.523C406.02 442.083 405.509 442.682 405.213 443.318L402.668 442.409C403.122 441.348 403.728 440.523 404.486 439.932C405.251 439.333 406.084 438.917 406.986 438.682C407.895 438.439 408.789 438.318 409.668 438.318C410.228 438.318 410.872 438.386 411.599 438.523C412.334 438.652 413.043 438.92 413.724 439.33C414.414 439.739 414.986 440.356 415.44 441.182C415.895 442.008 416.122 443.114 416.122 444.5V456H413.44V453.636H413.304C413.122 454.015 412.819 454.42 412.395 454.852C411.971 455.284 411.406 455.652 410.702 455.955C409.997 456.258 409.137 456.409 408.122 456.409ZM408.531 454C409.592 454 410.486 453.792 411.213 453.375C411.948 452.958 412.501 452.42 412.872 451.761C413.251 451.102 413.44 450.409 413.44 449.682V447.227C413.327 447.364 413.077 447.489 412.69 447.602C412.312 447.708 411.872 447.803 411.372 447.886C410.88 447.962 410.399 448.03 409.929 448.091C409.467 448.144 409.092 448.189 408.804 448.227C408.107 448.318 407.455 448.466 406.849 448.67C406.251 448.867 405.766 449.167 405.395 449.568C405.031 449.962 404.849 450.5 404.849 451.182C404.849 452.114 405.194 452.818 405.884 453.295C406.58 453.765 407.463 454 408.531 454ZM423.699 445.5V456H421.017V438.545H423.608V441.273H423.835C424.244 440.386 424.866 439.674 425.699 439.136C426.532 438.591 427.608 438.318 428.926 438.318C430.108 438.318 431.142 438.561 432.028 439.045C432.915 439.523 433.604 440.25 434.097 441.227C434.589 442.197 434.835 443.424 434.835 444.909V456H432.153V445.091C432.153 443.72 431.797 442.652 431.085 441.886C430.373 441.114 429.396 440.727 428.153 440.727C427.297 440.727 426.532 440.913 425.858 441.284C425.191 441.655 424.665 442.197 424.278 442.909C423.892 443.621 423.699 444.485 423.699 445.5ZM447.327 438.545V440.818H438.281V438.545H447.327ZM440.918 434.364H443.599V451C443.599 451.758 443.709 452.326 443.929 452.705C444.156 453.076 444.444 453.326 444.793 453.455C445.149 453.576 445.524 453.636 445.918 453.636C446.213 453.636 446.455 453.621 446.645 453.591C446.834 453.553 446.986 453.523 447.099 453.5L447.645 455.909C447.463 455.977 447.209 456.045 446.884 456.114C446.558 456.189 446.145 456.227 445.645 456.227C444.887 456.227 444.145 456.064 443.418 455.739C442.698 455.413 442.099 454.917 441.622 454.25C441.152 453.583 440.918 452.742 440.918 451.727V434.364ZM463.412 442.455L461.003 443.136C460.851 442.735 460.628 442.345 460.332 441.966C460.045 441.58 459.651 441.261 459.151 441.011C458.651 440.761 458.01 440.636 457.23 440.636C456.162 440.636 455.272 440.883 454.56 441.375C453.855 441.86 453.503 442.477 453.503 443.227C453.503 443.894 453.745 444.42 454.23 444.807C454.715 445.193 455.473 445.515 456.503 445.773L459.094 446.409C460.654 446.788 461.817 447.367 462.582 448.148C463.348 448.92 463.73 449.917 463.73 451.136C463.73 452.136 463.442 453.03 462.866 453.818C462.298 454.606 461.503 455.227 460.48 455.682C459.457 456.136 458.268 456.364 456.912 456.364C455.132 456.364 453.658 455.977 452.491 455.205C451.325 454.432 450.586 453.303 450.276 451.818L452.821 451.182C453.063 452.121 453.522 452.826 454.196 453.295C454.878 453.765 455.768 454 456.866 454C458.116 454 459.109 453.735 459.844 453.205C460.586 452.667 460.957 452.023 460.957 451.273C460.957 450.667 460.745 450.159 460.321 449.75C459.897 449.333 459.245 449.023 458.366 448.818L455.457 448.136C453.859 447.758 452.685 447.17 451.935 446.375C451.192 445.572 450.821 444.568 450.821 443.364C450.821 442.379 451.098 441.508 451.651 440.75C452.211 439.992 452.973 439.398 453.935 438.966C454.904 438.534 456.003 438.318 457.23 438.318C458.957 438.318 460.313 438.697 461.298 439.455C462.291 440.212 462.995 441.212 463.412 442.455Z" fill="black"/>
<path d="M2.81818 258V234.727H5.63636V245.091H18.0455V234.727H20.8636V258H18.0455V247.591H5.63636V258H2.81818ZM33.233 258.364C31.6572 258.364 30.2746 257.989 29.0852 257.239C27.9034 256.489 26.9792 255.439 26.3125 254.091C25.6534 252.742 25.3239 251.167 25.3239 249.364C25.3239 247.545 25.6534 245.958 26.3125 244.602C26.9792 243.246 27.9034 242.193 29.0852 241.443C30.2746 240.693 31.6572 240.318 33.233 240.318C34.8087 240.318 36.1875 240.693 37.3693 241.443C38.5587 242.193 39.483 243.246 40.142 244.602C40.8087 245.958 41.142 247.545 41.142 249.364C41.142 251.167 40.8087 252.742 40.142 254.091C39.483 255.439 38.5587 256.489 37.3693 257.239C36.1875 257.989 34.8087 258.364 33.233 258.364ZM33.233 255.955C34.4299 255.955 35.4148 255.648 36.1875 255.034C36.9602 254.42 37.5322 253.614 37.9034 252.614C38.2746 251.614 38.4602 250.53 38.4602 249.364C38.4602 248.197 38.2746 247.11 37.9034 246.102C37.5322 245.095 36.9602 244.28 36.1875 243.659C35.4148 243.038 34.4299 242.727 33.233 242.727C32.036 242.727 31.0511 243.038 30.2784 243.659C29.5057 244.28 28.9337 245.095 28.5625 246.102C28.1913 247.11 28.0057 248.197 28.0057 249.364C28.0057 250.53 28.1913 251.614 28.5625 252.614C28.9337 253.614 29.5057 254.42 30.2784 255.034C31.0511 255.648 32.036 255.955 33.233 255.955ZM56.2358 250.864V240.545H58.9176V258H56.2358V255.045H56.054C55.6449 255.932 55.0085 256.686 54.1449 257.307C53.2813 257.92 52.1903 258.227 50.8722 258.227C49.7812 258.227 48.8116 257.989 47.9631 257.511C47.1146 257.027 46.4479 256.299 45.9631 255.33C45.4782 254.352 45.2358 253.121 45.2358 251.636V240.545H47.9176V251.455C47.9176 252.727 48.2737 253.742 48.9858 254.5C49.7055 255.258 50.6222 255.636 51.7358 255.636C52.4025 255.636 53.0805 255.466 53.7699 255.125C54.4669 254.784 55.0502 254.261 55.5199 253.557C55.9972 252.852 56.2358 251.955 56.2358 250.864ZM63.8295 258V240.545H66.4205V243.182H66.6023C66.9205 242.318 67.4962 241.617 68.3295 241.08C69.1629 240.542 70.1023 240.273 71.1477 240.273C71.3447 240.273 71.5909 240.277 71.8864 240.284C72.1818 240.292 72.4053 240.303 72.5568 240.318V243.045C72.4659 243.023 72.2576 242.989 71.9318 242.943C71.6136 242.89 71.2765 242.864 70.9205 242.864C70.072 242.864 69.3144 243.042 68.6477 243.398C67.9886 243.746 67.4659 244.231 67.0795 244.852C66.7008 245.466 66.5114 246.167 66.5114 246.955V258H63.8295ZM88.0994 244.455L85.6903 245.136C85.5388 244.735 85.3153 244.345 85.0199 243.966C84.732 243.58 84.3381 243.261 83.8381 243.011C83.3381 242.761 82.6979 242.636 81.9176 242.636C80.8494 242.636 79.9593 242.883 79.2472 243.375C78.5426 243.86 78.1903 244.477 78.1903 245.227C78.1903 245.894 78.4328 246.42 78.9176 246.807C79.4025 247.193 80.16 247.515 81.1903 247.773L83.7812 248.409C85.3419 248.788 86.5047 249.367 87.2699 250.148C88.035 250.92 88.4176 251.917 88.4176 253.136C88.4176 254.136 88.1297 255.03 87.554 255.818C86.9858 256.606 86.1903 257.227 85.1676 257.682C84.1449 258.136 82.9555 258.364 81.5994 258.364C79.8191 258.364 78.3456 257.977 77.179 257.205C76.0123 256.432 75.2737 255.303 74.9631 253.818L77.5085 253.182C77.7509 254.121 78.2093 254.826 78.8835 255.295C79.5653 255.765 80.4555 256 81.554 256C82.804 256 83.7964 255.735 84.5312 255.205C85.2737 254.667 85.6449 254.023 85.6449 253.273C85.6449 252.667 85.4328 252.159 85.0085 251.75C84.5843 251.333 83.9328 251.023 83.054 250.818L80.1449 250.136C78.5464 249.758 77.3722 249.17 76.6222 248.375C75.8797 247.572 75.5085 246.568 75.5085 245.364C75.5085 244.379 75.785 243.508 76.3381 242.75C76.8987 241.992 77.66 241.398 78.6222 240.966C79.5919 240.534 80.6903 240.318 81.9176 240.318C83.6449 240.318 85.0009 240.697 85.9858 241.455C86.9782 242.212 87.6828 243.212 88.0994 244.455Z" fill="black"/>
<path d="M133.115 117.199C132.187 117.199 131.361 117.024 130.636 116.673C129.912 116.323 129.344 115.845 128.932 115.239C128.52 114.628 128.314 113.939 128.314 113.172C128.314 112.571 128.439 112.009 128.69 111.489C128.941 110.963 129.287 110.523 129.727 110.168C130.168 109.808 130.662 109.573 131.212 109.464V109.386C130.497 109.178 129.921 108.768 129.486 108.158C129.05 107.542 128.835 106.844 128.839 106.062C128.835 105.338 129.019 104.689 129.393 104.116C129.768 103.544 130.277 103.091 130.92 102.76C131.569 102.424 132.301 102.256 133.115 102.256C133.925 102.256 134.652 102.424 135.295 102.76C135.939 103.091 136.448 103.544 136.822 104.116C137.201 104.689 137.393 105.338 137.398 106.062C137.393 106.839 137.173 107.537 136.737 108.158C136.302 108.773 135.729 109.183 135.018 109.386V109.464C135.568 109.569 136.06 109.801 136.496 110.161C136.931 110.52 137.277 110.963 137.533 111.489C137.788 112.009 137.916 112.571 137.916 113.172C137.916 113.939 137.708 114.628 137.291 115.239C136.879 115.845 136.311 116.323 135.587 116.673C134.867 117.024 134.043 117.199 133.115 117.199ZM133.115 116.006C133.806 116.006 134.412 115.883 134.933 115.636C135.459 115.385 135.868 115.042 136.162 114.607C136.46 114.171 136.609 113.671 136.609 113.108C136.609 112.526 136.455 112.007 136.148 111.553C135.84 111.093 135.423 110.731 134.898 110.466C134.372 110.196 133.778 110.061 133.115 110.061C132.452 110.061 131.856 110.196 131.325 110.466C130.8 110.731 130.383 111.093 130.075 111.553C129.772 112.007 129.621 112.526 129.621 113.108C129.621 113.671 129.765 114.171 130.054 114.607C130.348 115.042 130.757 115.385 131.283 115.636C131.813 115.883 132.424 116.006 133.115 116.006ZM133.115 108.925C133.683 108.925 134.192 108.804 134.642 108.562C135.092 108.321 135.447 107.992 135.707 107.575C135.973 107.154 136.107 106.676 136.112 106.141C136.107 105.61 135.975 105.142 135.714 104.734C135.454 104.322 135.099 104.003 134.649 103.776C134.204 103.544 133.693 103.428 133.115 103.428C132.537 103.428 132.021 103.544 131.567 103.776C131.117 104.003 130.762 104.322 130.501 104.734C130.246 105.142 130.12 105.61 130.125 106.141C130.12 106.676 130.248 107.154 130.509 107.575C130.774 107.992 131.131 108.321 131.581 108.562C132.036 108.804 132.547 108.925 133.115 108.925Z" fill="black"/>
<path d="M129.038 156L135.665 142.74V142.648H128.03V141.455H137.057V142.705L130.438 156H129.038Z" fill="black"/>
<path d="M133.2 195.199C132.599 195.194 132.012 195.073 131.439 194.837C130.866 194.595 130.35 194.209 129.891 193.679C129.431 193.144 129.067 192.438 128.797 191.562C128.527 190.687 128.392 189.609 128.392 188.331C128.392 187.147 128.496 186.063 128.705 185.078C128.913 184.093 129.225 183.241 129.642 182.521C130.059 181.802 130.58 181.245 131.205 180.852C131.83 180.455 132.561 180.256 133.399 180.256C134.185 180.256 134.879 180.419 135.48 180.746C136.081 181.068 136.569 181.518 136.943 182.095C137.317 182.673 137.552 183.338 137.646 184.091H136.339C136.207 183.324 135.892 182.692 135.395 182.195C134.898 181.697 134.232 181.449 133.399 181.449C132.206 181.449 131.283 182.003 130.629 183.111C129.976 184.214 129.647 185.781 129.642 187.812H129.734C129.966 187.382 130.265 187.01 130.629 186.697C130.999 186.38 131.418 186.134 131.886 185.959C132.355 185.779 132.848 185.689 133.364 185.689C134.173 185.689 134.914 185.895 135.587 186.307C136.259 186.714 136.796 187.275 137.199 187.99C137.601 188.7 137.803 189.512 137.803 190.426C137.803 191.293 137.611 192.09 137.227 192.82C136.848 193.549 136.313 194.129 135.622 194.56C134.936 194.991 134.128 195.204 133.2 195.199ZM133.2 194.006C133.835 194.006 134.401 193.845 134.898 193.523C135.4 193.201 135.795 192.77 136.084 192.23C136.373 191.686 136.517 191.084 136.517 190.426C136.517 189.768 136.373 189.171 136.084 188.636C135.795 188.101 135.4 187.675 134.898 187.358C134.401 187.041 133.835 186.882 133.2 186.882C132.717 186.882 132.268 186.982 131.851 187.18C131.434 187.375 131.072 187.642 130.764 187.983C130.461 188.319 130.229 188.705 130.068 189.141C129.912 189.576 129.853 190.033 129.891 190.511C129.943 191.179 130.116 191.778 130.409 192.308C130.707 192.834 131.096 193.248 131.574 193.551C132.057 193.854 132.599 194.006 133.2 194.006Z" fill="black"/>
<path d="M132.874 234.199C132.064 234.199 131.339 234.036 130.7 233.709C130.066 233.377 129.559 232.923 129.18 232.345C128.806 231.768 128.607 231.107 128.584 230.364H129.869C129.912 231.135 130.215 231.77 130.778 232.267C131.342 232.759 132.04 233.006 132.874 233.006C133.522 233.006 134.1 232.852 134.607 232.544C135.113 232.232 135.509 231.805 135.793 231.266C136.081 230.721 136.226 230.108 136.226 229.426C136.221 228.716 136.067 228.091 135.764 227.551C135.461 227.007 135.049 226.58 134.528 226.273C134.012 225.965 133.432 225.811 132.788 225.811C132.301 225.806 131.822 225.887 131.354 226.053C130.885 226.218 130.494 226.431 130.182 226.692L128.854 226.521L129.727 219.455H136.915V220.648H130.842L130.26 225.513H130.331C130.653 225.243 131.044 225.023 131.503 224.852C131.967 224.682 132.457 224.597 132.973 224.597C133.83 224.597 134.599 224.803 135.281 225.214C135.968 225.626 136.51 226.195 136.908 226.919C137.31 227.639 137.511 228.467 137.511 229.405C137.511 230.323 137.31 231.145 136.908 231.869C136.51 232.589 135.961 233.157 135.26 233.574C134.564 233.991 133.768 234.199 132.874 234.199Z" fill="black"/>
<path d="M128.271 269.875V268.795L134.756 258.455H135.551V260.266H134.962L129.756 268.589V268.682H138.257V269.875H128.271ZM135.061 273V269.534V269.037V258.455H136.325V273H135.061Z" fill="black"/>
<path d="M133.342 312.199C132.447 312.199 131.647 312.038 130.942 311.716C130.236 311.389 129.678 310.937 129.266 310.359C128.854 309.782 128.636 309.116 128.612 308.364H129.955C129.978 308.894 130.142 309.358 130.445 309.756C130.748 310.149 131.15 310.456 131.652 310.679C132.154 310.897 132.713 311.006 133.328 311.006C134 311.006 134.592 310.88 135.104 310.629C135.62 310.378 136.022 310.035 136.311 309.599C136.605 309.159 136.751 308.662 136.751 308.108C136.751 307.521 136.602 307.002 136.304 306.553C136.006 306.103 135.577 305.752 135.018 305.501C134.464 305.25 133.802 305.125 133.03 305.125H132.178V303.932H133.03C133.66 303.932 134.216 303.818 134.699 303.591C135.187 303.359 135.57 303.035 135.849 302.618C136.129 302.201 136.268 301.711 136.268 301.148C136.268 300.613 136.148 300.142 135.906 299.734C135.665 299.327 135.324 299.008 134.884 298.776C134.448 298.544 133.939 298.428 133.357 298.428C132.793 298.428 132.277 298.536 131.808 298.754C131.339 298.972 130.961 299.28 130.672 299.678C130.388 300.075 130.236 300.546 130.217 301.091H128.932C128.951 300.333 129.159 299.668 129.557 299.095C129.959 298.518 130.492 298.068 131.155 297.746C131.822 297.419 132.561 297.256 133.371 297.256C134.228 297.256 134.969 297.431 135.594 297.781C136.219 298.132 136.702 298.598 137.043 299.18C137.388 299.758 137.561 300.395 137.561 301.091C137.561 301.92 137.336 302.63 136.886 303.222C136.437 303.809 135.83 304.216 135.068 304.443V304.536C135.996 304.72 136.725 305.132 137.256 305.771C137.791 306.406 138.058 307.185 138.058 308.108C138.058 308.884 137.855 309.583 137.447 310.203C137.04 310.819 136.482 311.306 135.771 311.666C135.066 312.021 134.256 312.199 133.342 312.199Z" fill="black"/>
<path d="M128.619 351V350.027L133.371 344.686C133.991 343.985 134.491 343.386 134.869 342.889C135.248 342.392 135.523 341.933 135.693 341.511C135.868 341.09 135.956 340.652 135.956 340.197C135.956 339.643 135.826 339.161 135.565 338.749C135.31 338.332 134.957 338.008 134.507 337.776C134.057 337.544 133.551 337.428 132.987 337.428C132.391 337.428 131.867 337.555 131.418 337.811C130.973 338.067 130.627 338.417 130.381 338.862C130.134 339.307 130.011 339.819 130.011 340.396H128.74C128.74 339.591 128.925 338.879 129.294 338.259C129.668 337.634 130.177 337.143 130.821 336.788C131.47 336.433 132.204 336.256 133.023 336.256C133.832 336.256 134.552 336.431 135.182 336.781C135.812 337.127 136.306 337.598 136.666 338.195C137.026 338.791 137.206 339.459 137.206 340.197C137.206 340.732 137.111 341.251 136.922 341.753C136.737 342.255 136.418 342.813 135.963 343.429C135.509 344.045 134.879 344.797 134.074 345.688L130.466 349.714V349.807H137.661V351H128.619Z" fill="black"/>
<path d="M133.108 375.455V390H131.78V376.847H131.695L128.286 379.112V377.734L131.723 375.455H133.108Z" fill="black"/>
<rect x="188" y="211" width="24" height="189" fill="url(#paint0_linear_3_213)"/>
<rect x="244" y="262" width="24" height="138" fill="url(#paint1_linear_3_213)"/>
<rect x="300" y="239" width="24" height="161" fill="url(#paint2_linear_3_213)"/>
<rect x="356" y="239" width="24" height="161" fill="url(#paint3_linear_3_213)"/>
<rect x="412" y="167" width="24" height="233" fill="url(#paint4_linear_3_213)"/>
<rect x="468" y="312" width="24" height="88" fill="url(#paint5_linear_3_213)"/>
<defs>
<linearGradient id="paint0_linear_3_213" x1="200" y1="211" x2="200" y2="400" gradientUnits="userSpaceOnUse">
<stop stop-color="#0085FF"/>
<stop offset="1" stop-color="#00417D"/>
</linearGradient>
<linearGradient id="paint1_linear_3_213" x1="256" y1="262" x2="256" y2="400" gradientUnits="userSpaceOnUse">
<stop stop-color="#0085FF"/>
<stop offset="1" stop-color="#00417D"/>
</linearGradient>
<linearGradient id="paint2_linear_3_213" x1="312" y1="239" x2="312" y2="400" gradientUnits="userSpaceOnUse">
<stop stop-color="#0085FF"/>
<stop offset="1" stop-color="#00417D"/>
</linearGradient>
<linearGradient id="paint3_linear_3_213" x1="368" y1="239" x2="368" y2="400" gradientUnits="userSpaceOnUse">
<stop stop-color="#0085FF"/>
<stop offset="1" stop-color="#00417D"/>
</linearGradient>
<linearGradient id="paint4_linear_3_213" x1="424" y1="167" x2="424" y2="400" gradientUnits="userSpaceOnUse">
<stop stop-color="#0085FF"/>
<stop offset="1" stop-color="#00417D"/>
</linearGradient>
<linearGradient id="paint5_linear_3_213" x1="480" y1="312" x2="480" y2="400" gradientUnits="userSpaceOnUse">
<stop stop-color="#0085FF"/>
<stop offset="1" stop-color="#00417D"/>
</linearGradient>
</defs>
</svg>
