<svg width="1408" height="484" viewBox="0 0 1408 484" fill="none" xmlns="http://www.w3.org/2000/svg">
<path d="M609.226 388.705C585.953 373.671 566.592 353.315 552.74 329.32C538.888 305.325 530.943 278.379 529.562 250.707C528.18 223.035 533.402 195.432 544.796 170.177C556.189 144.922 573.428 122.739 595.087 105.462C616.747 88.1849 642.206 76.3085 669.362 70.8137C696.518 65.319 724.591 66.3636 751.264 73.8613C777.937 81.359 802.443 95.0946 822.758 113.934C843.074 132.773 858.616 156.175 868.101 182.207L859.563 185.318C850.571 160.64 835.838 138.456 816.579 120.597C797.32 102.738 774.089 89.7174 748.805 82.6098C723.52 75.5023 696.907 74.512 671.164 79.7209C645.421 84.9297 621.287 96.1882 600.754 112.566C580.222 128.945 563.88 149.973 553.079 173.914C542.279 197.855 537.329 224.022 538.638 250.254C539.947 276.486 547.479 302.03 560.61 324.777C573.741 347.523 592.096 366.82 614.157 381.072L609.226 388.705Z" fill="#545454"/>
<circle cx="704" cy="242" r="105" fill="#545454"/>
<path d="M796.631 334.631C781.937 349.325 763.957 360.313 744.178 366.686C724.398 373.06 703.386 374.636 682.877 371.286C662.368 367.935 642.95 359.753 626.228 347.415C609.505 335.078 595.958 318.939 586.704 300.332C577.451 281.725 572.757 261.183 573.01 240.404C573.263 219.624 578.456 199.203 588.16 180.827C597.864 162.451 611.801 146.647 628.819 134.721C645.837 122.794 665.448 115.088 686.033 112.238L687.805 125.039C669.251 127.608 651.575 134.554 636.236 145.304C620.896 156.054 608.335 170.299 599.588 186.862C590.841 203.425 586.16 221.832 585.932 240.561C585.704 259.291 589.935 277.806 598.276 294.577C606.616 311.349 618.827 325.896 633.9 337.016C648.973 348.136 666.475 355.511 684.961 358.531C703.447 361.551 722.386 360.131 740.214 354.386C758.042 348.641 774.248 338.737 787.493 325.492L796.631 334.631Z" fill="#545454"/>
<path d="M737.905 115.464C757.216 120.638 775.087 130.164 790.148 143.311C805.21 156.458 817.062 172.879 824.797 191.314C832.532 209.749 835.946 229.71 834.775 249.668C833.605 269.627 827.882 289.052 818.045 306.457L806.794 300.098C815.661 284.41 820.819 266.901 821.874 248.912C822.929 230.923 819.852 212.931 812.88 196.314C805.908 179.698 795.225 164.897 781.65 153.047C768.074 141.197 751.966 132.611 734.56 127.947L737.905 115.464Z" fill="#545454"/>
<path d="M627.385 374.701C606.334 362.547 588.477 345.559 575.288 325.141C562.099 304.723 553.957 281.46 551.534 257.274C549.111 233.088 552.477 208.672 561.353 186.043C570.23 163.415 584.363 143.222 602.584 127.134C620.806 111.046 642.593 99.5242 666.147 93.5195C689.701 87.5148 714.346 87.1998 738.046 92.6006C761.746 98.0015 783.821 108.963 802.447 124.58C821.074 140.197 835.718 160.022 845.17 182.416L834.534 186.905C825.794 166.198 812.253 147.867 795.03 133.427C777.807 118.986 757.395 108.851 735.481 103.857C713.567 98.8629 690.779 99.1541 668.999 104.706C647.22 110.259 627.074 120.913 610.225 135.789C593.376 150.665 580.308 169.335 572.101 190.259C563.893 211.183 560.781 233.759 563.021 256.123C565.261 278.487 572.79 299.997 584.986 318.877C597.181 337.757 613.693 353.464 633.158 364.703L627.385 374.701Z" fill="#545454"/>
<path d="M852.008 281.659C846.299 302.966 836.057 322.789 821.982 339.773C807.907 356.757 790.33 370.503 770.454 380.069L765.447 369.667C783.826 360.821 800.078 348.111 813.093 332.406C826.107 316.702 835.578 298.372 840.857 278.671L852.008 281.659Z" fill="#545454"/>
<path d="M878.437 250.724C876.517 289.114 861.987 325.798 837.098 355.09C812.21 384.382 778.353 404.645 740.777 412.739L738.864 403.855C774.484 396.183 806.579 376.974 830.173 349.206C853.766 321.438 867.541 286.662 869.361 250.27L878.437 250.724Z" fill="#545454"/>
<path d="M704 204C709.039 204 713.872 206.002 717.435 209.565C720.998 213.128 723 217.961 723 223C723 228.039 720.998 232.872 717.435 236.435C713.872 239.998 709.039 242 704 242C698.961 242 694.128 239.998 690.565 236.435C687.002 232.872 685 228.039 685 223C685 217.961 687.002 213.128 690.565 209.565C694.128 206.002 698.961 204 704 204ZM704 251.5C724.995 251.5 742 260.002 742 270.5V280H666V270.5C666 260.002 683.005 251.5 704 251.5Z" fill="white"/>
<rect x="927" y="237" width="481" height="10" rx="5" fill="#545454"/>
<rect y="237" width="481" height="10" rx="5" fill="#545454"/>
</svg>
